<svg width="24" height="24" viewBox="0 0 24 24" fill="none" xmlns="http://www.w3.org/2000/svg">
<path fill-rule="evenodd" clip-rule="evenodd" d="M4.17484 2.02638C3.24947 2.21376 2.48188 2.88239 2.12367 3.81506L2 4.13447V6.54067V8.94688L2.12367 9.26628C2.46908 10.1649 3.15565 10.7824 4.05117 11.0124C4.371 11.0976 4.55437 11.0976 12 11.0976C19.4456 11.0976 19.629 11.0976 19.9488 11.0124C20.8444 10.7824 21.5309 10.1649 21.8763 9.26628L22 8.94688V6.56197C22 4.34315 21.9957 4.16002 21.919 3.94282C21.6247 3.06978 21.0448 2.45651 20.2132 2.13711L19.8678 2.00508L12.1066 2.00083C7.83795 1.99657 4.26866 2.00934 4.17484 2.02638ZM4.17484 12.9288C3.24094 13.1247 2.48188 13.7848 2.12367 14.7175L2 15.0369V17.4431V19.8493L2.12367 20.1687C2.38806 20.8629 2.85288 21.3867 3.46695 21.6934C4.04264 21.983 4.24307 22.0085 5.77825 21.9915C7.04478 21.9787 7.13433 21.9702 7.39446 21.8808C8.21322 21.5912 8.81876 20.9992 9.13859 20.1772L9.24947 19.8919V17.4431V14.9943L9.13859 14.709C8.97655 14.2916 8.77185 13.9765 8.47761 13.6784C8.16631 13.3717 7.85927 13.1758 7.42857 13.0225C7.11727 12.9075 7.11727 12.9075 5.73134 12.899C4.96802 12.8948 4.26866 12.9075 4.17484 12.9288ZM11.2026 14.7729C11.5053 13.8828 12.2217 13.2099 13.1173 12.9714C13.4115 12.8948 13.5906 12.8905 16.6482 12.899L19.8678 12.9075L20.2132 13.0396C21.0448 13.359 21.6247 13.9722 21.919 14.8453C21.9957 15.0625 22 15.2456 22 17.4644V19.8493L21.8763 20.1687C21.5309 21.0673 20.8444 21.6849 19.9488 21.9148C19.6375 21.9957 19.467 22 16.5416 22C13.6119 22 13.4456 21.9957 13.1343 21.9148C12.2303 21.6849 11.5053 21.0077 11.2026 20.1134L11.0832 19.7641V17.4431V15.1221L11.2026 14.7729Z" fill="#FF8057"/>
<mask id="mask0_46642_168499" style="mask-type:luminance" maskUnits="userSpaceOnUse" x="2" y="2" width="20" height="20">
<path fill-rule="evenodd" clip-rule="evenodd" d="M4.17484 2.02638C3.24947 2.21376 2.48188 2.88239 2.12367 3.81506L2 4.13447V6.54067V8.94688L2.12367 9.26628C2.46908 10.1649 3.15565 10.7824 4.05117 11.0124C4.371 11.0976 4.55437 11.0976 12 11.0976C19.4456 11.0976 19.629 11.0976 19.9488 11.0124C20.8444 10.7824 21.5309 10.1649 21.8763 9.26628L22 8.94688V6.56197C22 4.34315 21.9957 4.16002 21.919 3.94282C21.6247 3.06978 21.0448 2.45651 20.2132 2.13711L19.8678 2.00508L12.1066 2.00083C7.83795 1.99657 4.26866 2.00934 4.17484 2.02638ZM4.17484 12.9288C3.24094 13.1247 2.48188 13.7848 2.12367 14.7175L2 15.0369V17.4431V19.8493L2.12367 20.1687C2.38806 20.8629 2.85288 21.3867 3.46695 21.6934C4.04264 21.983 4.24307 22.0085 5.77825 21.9915C7.04478 21.9787 7.13433 21.9702 7.39446 21.8808C8.21322 21.5912 8.81876 20.9992 9.13859 20.1772L9.24947 19.8919V17.4431V14.9943L9.13859 14.709C8.97655 14.2916 8.77185 13.9765 8.47761 13.6784C8.16631 13.3717 7.85927 13.1758 7.42857 13.0225C7.11727 12.9075 7.11727 12.9075 5.73134 12.899C4.96802 12.8948 4.26866 12.9075 4.17484 12.9288ZM11.2026 14.7729C11.5053 13.8828 12.2217 13.2099 13.1173 12.9714C13.4115 12.8948 13.5906 12.8905 16.6482 12.899L19.8678 12.9075L20.2132 13.0396C21.0448 13.359 21.6247 13.9722 21.919 14.8453C21.9957 15.0625 22 15.2456 22 17.4644V19.8493L21.8763 20.1687C21.5309 21.0673 20.8444 21.6849 19.9488 21.9148C19.6375 21.9957 19.467 22 16.5416 22C13.6119 22 13.4456 21.9957 13.1343 21.9148C12.2303 21.6849 11.5053 21.0077 11.2026 20.1134L11.0832 19.7641V17.4431V15.1221L11.2026 14.7729Z" fill="white"/>
</mask>
<g mask="url(#mask0_46642_168499)">
<rect width="24" height="24" fill="#FF8057"/>
</g>
</svg>
