<svg width="24" height="24" viewBox="0 0 24 24" fill="none" xmlns="http://www.w3.org/2000/svg">
<path fill-rule="evenodd" clip-rule="evenodd" d="M2.12367 3.81506C2.48188 2.88239 3.24947 2.21376 4.17484 2.02638C4.26866 2.00934 7.83795 1.99657 12.1066 2.00083L19.8678 2.00508L20.2132 2.13711C21.0448 2.45651 21.6247 3.06978 21.919 3.94282C21.9957 4.16002 22 4.34315 22 6.56197V8.94688L21.8763 9.26628C21.5309 10.1649 20.8444 10.7824 19.9488 11.0124C19.629 11.0976 19.4456 11.0976 12 11.0976C4.55437 11.0976 4.371 11.0976 4.05117 11.0124C3.15565 10.7824 2.46908 10.1649 2.12367 9.26628L2 8.94688V6.54067V4.13447L2.12367 3.81506ZM20.0853 4.3687C19.9744 4.16002 19.8507 4.03226 19.6546 3.93005L19.484 3.83636L12.1066 3.8321C8.04691 3.82784 4.66098 3.83635 4.57996 3.85339C4.27719 3.91727 4.06823 4.07485 3.91471 4.3687C3.83795 4.50924 3.83369 4.64552 3.83369 6.54067C3.83369 8.52952 3.83369 8.56785 3.92751 8.73394C4.02985 8.92984 4.15778 9.05335 4.36674 9.16407C4.51173 9.24073 4.77612 9.24499 12 9.24499H19.484L19.6546 9.1513C19.8507 9.04909 19.9744 8.92132 20.0853 8.71264C20.162 8.5721 20.1663 8.43582 20.1663 6.54067C20.1663 4.64552 20.162 4.50924 20.0853 4.3687ZM2.12367 14.7175C2.48188 13.7848 3.24094 13.1247 4.17484 12.9288C4.26866 12.9075 4.96802 12.8948 5.73134 12.899C7.11727 12.9075 7.11727 12.9075 7.42857 13.0225C7.85927 13.1758 8.16631 13.3717 8.47761 13.6784C8.77185 13.9765 8.97655 14.2916 9.13859 14.709L9.24947 14.9943V17.4431V19.8919L9.13859 20.1772C8.81876 20.9992 8.21322 21.5912 7.39446 21.8808C7.13433 21.9702 7.04478 21.9787 5.77825 21.9915C4.24307 22.0085 4.04264 21.983 3.46695 21.6934C2.85288 21.3867 2.38806 20.8629 2.12367 20.1687L2 19.8493V17.4431V15.0369L2.12367 14.7175ZM7.39019 15.3861C7.33475 15.186 7.10448 14.9219 6.89126 14.8197C6.7548 14.7516 6.60981 14.7388 5.73134 14.7303C5.18124 14.726 4.66098 14.7388 4.57996 14.7558C4.27292 14.8197 4.06823 14.9816 3.91471 15.2711C3.83795 15.4117 3.83369 15.548 3.83369 17.4431C3.83369 19.432 3.83369 19.4703 3.92751 19.6364C4.02985 19.8323 4.15778 19.9558 4.36674 20.0665C4.5032 20.1389 4.6226 20.1474 5.62473 20.1474C6.61834 20.1474 6.75053 20.1389 6.89126 20.0665C7.10448 19.9643 7.33475 19.7003 7.39019 19.5001C7.45416 19.2786 7.45416 15.6076 7.39019 15.3861ZM13.1173 12.9714C12.2217 13.2099 11.5053 13.8828 11.2026 14.7729L11.0832 15.1221V17.4431V19.7641L11.2026 20.1134C11.5053 21.0077 12.2303 21.6849 13.1343 21.9148C13.4456 21.9957 13.6119 22 16.5416 22C19.4669 22 19.6375 21.9957 19.9488 21.9148C20.8443 21.6849 21.5309 21.0673 21.8763 20.1687L22 19.8493V17.4644C22 15.2456 21.9957 15.0625 21.919 14.8453C21.6247 13.9722 21.0448 13.359 20.2132 13.0396L19.8678 12.9075L16.6482 12.899C13.5906 12.8905 13.4115 12.8948 13.1173 12.9714ZM19.6546 14.8325C19.8507 14.9347 19.9744 15.0625 20.0853 15.2711C20.162 15.4117 20.1663 15.548 20.1663 17.4431C20.1663 19.432 20.1663 19.4703 20.0725 19.6364C19.9701 19.8323 19.8422 19.9558 19.6333 20.0665C19.4925 20.1432 19.3348 20.1474 16.5629 20.1474H13.6375L13.4286 20.0367C13.3006 19.9728 13.1642 19.8578 13.0874 19.7471L12.9595 19.564L12.9467 17.4985C12.9339 15.4628 12.9382 15.4287 13.0277 15.2413C13.0746 15.1391 13.1855 15.0071 13.2665 14.9432C13.5522 14.7218 13.5906 14.7218 16.6482 14.7303L16.654 14.7303C19.4627 14.7388 19.4841 14.7389 19.6546 14.8325Z" fill="#707070"/>
<mask id="mask0_46642_168428" style="mask-type:luminance" maskUnits="userSpaceOnUse" x="2" y="2" width="20" height="20">
<path fill-rule="evenodd" clip-rule="evenodd" d="M2.12367 3.81506C2.48188 2.88239 3.24947 2.21376 4.17484 2.02638C4.26866 2.00934 7.83795 1.99657 12.1066 2.00083L19.8678 2.00508L20.2132 2.13711C21.0448 2.45651 21.6247 3.06978 21.919 3.94282C21.9957 4.16002 22 4.34315 22 6.56197V8.94688L21.8763 9.26628C21.5309 10.1649 20.8444 10.7824 19.9488 11.0124C19.629 11.0976 19.4456 11.0976 12 11.0976C4.55437 11.0976 4.371 11.0976 4.05117 11.0124C3.15565 10.7824 2.46908 10.1649 2.12367 9.26628L2 8.94688V6.54067V4.13447L2.12367 3.81506ZM20.0853 4.3687C19.9744 4.16002 19.8507 4.03226 19.6546 3.93005L19.484 3.83635L12.1066 3.8321C8.04691 3.82784 4.66098 3.83635 4.57996 3.85339C4.27719 3.91727 4.06823 4.07485 3.91471 4.3687C3.83795 4.50924 3.83369 4.64552 3.83369 6.54067C3.83369 8.52952 3.83369 8.56785 3.92751 8.73394C4.02985 8.92984 4.15778 9.05335 4.36674 9.16407C4.51173 9.24073 4.77612 9.24499 12 9.24499H19.484L19.6546 9.1513C19.8507 9.04909 19.9744 8.92132 20.0853 8.71264C20.162 8.5721 20.1663 8.43582 20.1663 6.54067C20.1663 4.64552 20.162 4.50924 20.0853 4.3687ZM2.12367 14.7175C2.48188 13.7848 3.24094 13.1247 4.17484 12.9288C4.26866 12.9075 4.96802 12.8948 5.73134 12.899C7.11727 12.9075 7.11727 12.9075 7.42857 13.0225C7.85927 13.1758 8.16631 13.3717 8.47761 13.6784C8.77185 13.9765 8.97655 14.2916 9.13859 14.709L9.24947 14.9943V17.4431V19.8919L9.13859 20.1772C8.81876 20.9992 8.21322 21.5912 7.39446 21.8808C7.13433 21.9702 7.04478 21.9787 5.77825 21.9915C4.24307 22.0085 4.04264 21.983 3.46695 21.6934C2.85288 21.3867 2.38806 20.8629 2.12367 20.1687L2 19.8493V17.4431V15.0369L2.12367 14.7175ZM7.39019 15.3861C7.33475 15.186 7.10448 14.9219 6.89126 14.8197C6.7548 14.7516 6.60981 14.7388 5.73134 14.7303C5.18124 14.726 4.66098 14.7388 4.57996 14.7558C4.27292 14.8197 4.06823 14.9816 3.91471 15.2711C3.83795 15.4117 3.83369 15.548 3.83369 17.4431C3.83369 19.432 3.83369 19.4703 3.92751 19.6364C4.02985 19.8323 4.15778 19.9558 4.36674 20.0665C4.5032 20.1389 4.6226 20.1474 5.62473 20.1474C6.61834 20.1474 6.75053 20.1389 6.89126 20.0665C7.10448 19.9643 7.33475 19.7003 7.39019 19.5001C7.45416 19.2786 7.45416 15.6076 7.39019 15.3861ZM13.1173 12.9714C12.2217 13.2099 11.5053 13.8828 11.2026 14.7729L11.0832 15.1221V17.4431V19.7641L11.2026 20.1134C11.5053 21.0077 12.2303 21.6849 13.1343 21.9148C13.4456 21.9957 13.6119 22 16.5416 22C19.4669 22 19.6375 21.9957 19.9488 21.9148C20.8443 21.6849 21.5309 21.0673 21.8763 20.1687L22 19.8493V17.4644C22 15.2456 21.9957 15.0625 21.919 14.8453C21.6247 13.9722 21.0448 13.359 20.2132 13.0396L19.8678 12.9075L16.6482 12.899C13.5906 12.8905 13.4115 12.8948 13.1173 12.9714ZM19.6546 14.8325C19.8507 14.9347 19.9744 15.0625 20.0853 15.2711C20.162 15.4117 20.1663 15.548 20.1663 17.4431C20.1663 19.432 20.1663 19.4703 20.0725 19.6364C19.9701 19.8323 19.8422 19.9558 19.6333 20.0665C19.4925 20.1432 19.3348 20.1474 16.5629 20.1474H13.6375L13.4286 20.0367C13.3006 19.9728 13.1642 19.8578 13.0874 19.7471L12.9595 19.564L12.9467 17.4985C12.9339 15.4628 12.9382 15.4287 13.0277 15.2413C13.0746 15.1391 13.1855 15.0071 13.2665 14.9432C13.5522 14.7218 13.5906 14.7218 16.6482 14.7303L16.654 14.7303C19.4627 14.7388 19.4841 14.7389 19.6546 14.8325Z" fill="white"/>
</mask>
<g mask="url(#mask0_46642_168428)">
<rect width="24" height="24" fill="#707070"/>
</g>
</svg>
