<svg width="25" height="24" viewBox="0 0 25 24" fill="none" xmlns="http://www.w3.org/2000/svg">
<path fill-rule="evenodd" clip-rule="evenodd" d="M10.6665 2H3.6665C3.11422 2 2.6665 2.44772 2.6665 3V10C2.6665 10.5523 3.11422 11 3.6665 11H10.6665C11.2188 11 11.6665 10.5523 11.6665 10V3C11.6665 2.44772 11.2188 2 10.6665 2ZM4.6665 9V4H9.6665V9H4.6665ZM14.6665 2H21.6665C22.2188 2 22.6665 2.44772 22.6665 3V10C22.6665 10.5523 22.2188 11 21.6665 11H14.6665C14.1142 11 13.6665 10.5523 13.6665 10V3C13.6665 2.44772 14.1142 2 14.6665 2ZM20.6665 9H15.6665V4H20.6665V9ZM22.618 16.8401C22.9028 18.7605 21.9239 20.647 20.1898 21.5198C18.4557 22.3926 16.3574 22.055 14.9847 20.6822C13.6119 19.3095 13.2743 17.2111 14.1471 15.4771C15.0199 13.743 16.9064 12.7641 18.8267 13.0489C20.7876 13.3397 22.3272 14.8793 22.618 16.8401ZM18.5333 15.0272C19.6227 15.1887 20.478 16.0441 20.6396 17.1334C20.7978 18.2003 20.254 19.2483 19.2906 19.7332C18.3272 20.2181 17.1614 20.0306 16.3988 19.2679C15.6362 18.5053 15.4486 17.3395 15.9335 16.3762C16.4184 15.4128 17.4664 14.869 18.5333 15.0272ZM3.6665 13H10.6665C11.2188 13 11.6665 13.4477 11.6665 14V21C11.6665 21.5523 11.2188 22 10.6665 22H3.6665C3.11422 22 2.6665 21.5523 2.6665 21V14C2.6665 13.4477 3.11422 13 3.6665 13ZM9.6665 20H4.6665V15H9.6665V20Z" fill="#707070"/>
<mask id="mask0_46642_170618" style="mask-type:luminance" maskUnits="userSpaceOnUse" x="2" y="2" width="21" height="21">
<path fill-rule="evenodd" clip-rule="evenodd" d="M10.6665 2H3.6665C3.11422 2 2.6665 2.44772 2.6665 3V10C2.6665 10.5523 3.11422 11 3.6665 11H10.6665C11.2188 11 11.6665 10.5523 11.6665 10V3C11.6665 2.44772 11.2188 2 10.6665 2ZM4.6665 9V4H9.6665V9H4.6665ZM14.6665 2H21.6665C22.2188 2 22.6665 2.44772 22.6665 3V10C22.6665 10.5523 22.2188 11 21.6665 11H14.6665C14.1142 11 13.6665 10.5523 13.6665 10V3C13.6665 2.44772 14.1142 2 14.6665 2ZM20.6665 9H15.6665V4H20.6665V9ZM22.618 16.8401C22.9028 18.7605 21.9239 20.647 20.1898 21.5198C18.4557 22.3926 16.3574 22.055 14.9847 20.6822C13.6119 19.3095 13.2743 17.2111 14.1471 15.4771C15.0199 13.743 16.9064 12.7641 18.8267 13.0489C20.7876 13.3397 22.3272 14.8793 22.618 16.8401ZM18.5333 15.0272C19.6227 15.1887 20.478 16.0441 20.6396 17.1334C20.7978 18.2003 20.254 19.2483 19.2906 19.7332C18.3272 20.2181 17.1614 20.0306 16.3988 19.2679C15.6362 18.5053 15.4486 17.3395 15.9335 16.3762C16.4184 15.4128 17.4664 14.869 18.5333 15.0272ZM3.6665 13H10.6665C11.2188 13 11.6665 13.4477 11.6665 14V21C11.6665 21.5523 11.2188 22 10.6665 22H3.6665C3.11422 22 2.6665 21.5523 2.6665 21V14C2.6665 13.4477 3.11422 13 3.6665 13ZM9.6665 20H4.6665V15H9.6665V20Z" fill="white"/>
</mask>
<g mask="url(#mask0_46642_170618)">
<rect x="0.666504" width="24" height="24" fill="#707070"/>
</g>
</svg>
