<svg width="24" height="24" viewBox="0 0 24 24" fill="none" xmlns="http://www.w3.org/2000/svg">
<path fill-rule="evenodd" clip-rule="evenodd" d="M3 2H10C10.5523 2 11 2.44772 11 3V10C11 10.5523 10.5523 11 10 11H3C2.44772 11 2 10.5523 2 10V3C2 2.44772 2.44772 2 3 2ZM4 4V9H9V4H4ZM21 2H14C13.4477 2 13 2.44772 13 3V10C13 10.5523 13.4477 11 14 11H21C21.5523 11 22 10.5523 22 10V3C22 2.44772 21.5523 2 21 2ZM15 9H20V4H15V9ZM19.5233 21.5198C21.2574 20.647 22.2362 18.7605 21.9515 16.8401C21.6607 14.8793 20.1211 13.3397 18.1602 13.0489C16.2399 12.7641 14.3534 13.743 13.4806 15.4771C12.6078 17.2111 12.9454 19.3095 14.3181 20.6822C15.6909 22.055 17.7892 22.3926 19.5233 21.5198ZM3 13H10C10.5523 13 11 13.4477 11 14V21C11 21.5523 10.5523 22 10 22H3C2.44772 22 2 21.5523 2 21V14C2 13.4477 2.44772 13 3 13ZM9 20H4V15H9V20Z" fill="#FF8057"/>
<mask id="mask0_46642_168429" style="mask-type:luminance" maskUnits="userSpaceOnUse" x="2" y="2" width="21" height="21">
<path fill-rule="evenodd" clip-rule="evenodd" d="M3 2H10C10.5523 2 11 2.44772 11 3V10C11 10.5523 10.5523 11 10 11H3C2.44772 11 2 10.5523 2 10V3C2 2.44772 2.44772 2 3 2ZM4 4V9H9V4H4ZM21 2H14C13.4477 2 13 2.44772 13 3V10C13 10.5523 13.4477 11 14 11H21C21.5523 11 22 10.5523 22 10V3C22 2.44772 21.5523 2 21 2ZM15 9H20V4H15V9ZM19.5233 21.5198C21.2574 20.647 22.2362 18.7605 21.9515 16.8401C21.6607 14.8793 20.1211 13.3397 18.1602 13.0489C16.2399 12.7641 14.3534 13.743 13.4806 15.4771C12.6078 17.2111 12.9454 19.3095 14.3181 20.6822C15.6909 22.055 17.7892 22.3926 19.5233 21.5198ZM3 13H10C10.5523 13 11 13.4477 11 14V21C11 21.5523 10.5523 22 10 22H3C2.44772 22 2 21.5523 2 21V14C2 13.4477 2.44772 13 3 13ZM9 20H4V15H9V20Z" fill="white"/>
</mask>
<g mask="url(#mask0_46642_168429)">
<rect width="24" height="24" fill="#FF8057"/>
</g>
</svg>
