<svg width="24" height="24" viewBox="0 0 24 24" fill="none" xmlns="http://www.w3.org/2000/svg">
<path fill-rule="evenodd" clip-rule="evenodd" d="M2.38606 8.21065L11.3861 1.21065C11.7472 0.929784 12.2528 0.929784 12.6139 1.21065L21.6139 8.21065C21.8575 8.4001 22 8.69141 22 9V20C22 21.6569 20.6569 23 19 23H15H9H5C3.34315 23 2 21.6569 2 20V9C2 8.69141 2.14247 8.4001 2.38606 8.21065ZM10 21H14V13H10V21ZM16 21V12C16 11.4477 15.5523 11 15 11H9C8.44772 11 8 11.4477 8 12V21H5C4.44772 21 4 20.5523 4 20V9.48908L12 3.26686L20 9.48908V20C20 20.5523 19.5523 21 19 21H16Z" fill="#707070"/>
<mask id="mask0_46642_168485" style="mask-type:luminance" maskUnits="userSpaceOnUse" x="2" y="1" width="20" height="22">
<path fill-rule="evenodd" clip-rule="evenodd" d="M2.38606 8.21065L11.3861 1.21065C11.7472 0.929784 12.2528 0.929784 12.6139 1.21065L21.6139 8.21065C21.8575 8.4001 22 8.69141 22 9V20C22 21.6569 20.6569 23 19 23H15H9H5C3.34315 23 2 21.6569 2 20V9C2 8.69141 2.14247 8.4001 2.38606 8.21065ZM10 21H14V13H10V21ZM16 21V12C16 11.4477 15.5523 11 15 11H9C8.44772 11 8 11.4477 8 12V21H5C4.44772 21 4 20.5523 4 20V9.48908L12 3.26686L20 9.48908V20C20 20.5523 19.5523 21 19 21H16Z" fill="white"/>
</mask>
<g mask="url(#mask0_46642_168485)">
<rect width="24" height="24" fill="#707070"/>
</g>
</svg>
