<svg width="46" height="20" viewBox="0 0 46 20" fill="none" xmlns="http://www.w3.org/2000/svg">
<g opacity="0.88">
<path d="M42.5784 1.68253C42.5784 1.41767 42.6439 1.16987 42.7749 0.938119C42.9059 0.706369 43.0856 0.523778 43.3149 0.390346C43.5441 0.256915 43.7913 0.189697 44.0553 0.189697C44.3173 0.189697 44.5625 0.255911 44.7918 0.38834C45.0211 0.520768 45.2017 0.702356 45.3337 0.934106C45.4658 1.16586 45.5323 1.41566 45.5323 1.68253C45.5323 1.94337 45.4687 2.18816 45.3417 2.4169C45.2146 2.64564 45.036 2.82924 44.8077 2.96668C44.5784 3.10413 44.3273 3.17335 44.0553 3.17335C43.7843 3.17335 43.5342 3.10513 43.3049 2.96768C43.0756 2.83024 42.897 2.64765 42.7699 2.41891C42.6429 2.19017 42.5784 1.94437 42.5784 1.68253ZM42.7848 1.68253C42.7848 1.91127 42.8414 2.12596 42.9555 2.3246C43.0697 2.52425 43.2245 2.68076 43.4221 2.79513C43.6196 2.9095 43.83 2.96668 44.0553 2.96668C44.2836 2.96668 44.495 2.9095 44.6896 2.79412C44.8851 2.67875 45.0399 2.52325 45.1541 2.32661C45.2692 2.12997 45.3258 1.91528 45.3258 1.68253C45.3258 1.45178 45.2692 1.23809 45.1551 1.04145C45.0409 0.843813 44.8871 0.687307 44.6925 0.571934C44.498 0.45656 44.2856 0.398373 44.0553 0.398373C43.827 0.398373 43.6156 0.455557 43.4211 0.57093C43.2255 0.686303 43.0707 0.841807 42.9565 1.03844C42.8424 1.23508 42.7848 1.44877 42.7848 1.68253ZM44.6548 1.32036C44.6548 1.4267 44.627 1.52 44.5714 1.60126C44.5159 1.68253 44.4375 1.74372 44.3362 1.78285L44.8037 2.56739H44.4732L44.0662 1.86411H43.8012V2.56739H43.5104V0.798667H44.0235C44.2409 0.798667 44.4007 0.841807 44.502 0.928086C44.6042 1.01336 44.6548 1.14479 44.6548 1.32036ZM43.8022 1.62033H44.0146C44.1198 1.62033 44.2032 1.59324 44.2667 1.53806C44.3303 1.48288 44.362 1.41366 44.362 1.32838C44.362 1.22906 44.3342 1.15783 44.2776 1.11469C44.2211 1.07155 44.1327 1.05048 44.0106 1.05048H43.8022V1.62033Z" fill="#707070"/>
</g>
<path opacity="0.88" d="M41.0994 3.0801V0.0683594H33.673V3.0801H35.3614L32.3529 6.83124L29.3414 3.0801H31.0357V0.0683594H25.4883V3.44027L30.2824 9.41259L25.4883 15.3899V15.9919H27.7742V19.0779H31.0357V15.9919H29.1489L32.3549 11.9929L35.5648 15.9919H33.673V19.0779H41.0994V15.9919H39.7058L34.4244 9.41259L39.5034 3.0801H41.0994Z" fill="#707070"/>
<path d="M23.5757 0.0683594V3.0801H25.1995L25.4884 3.44027V0.0683594H23.5757Z" fill="#707070"/>
<path d="M25.4884 15.9918V15.3899L25.006 15.9918H23.5757V19.0778H27.7742V15.9918H25.4884Z" fill="#707070"/>
<path d="M11.656 14.5764H14.2923C13.9796 15.3589 13.5409 16.0723 12.999 16.6882C12.4391 16.0723 11.9826 15.3579 11.656 14.5764Z" fill="#707070"/>
<path d="M12.9989 6.73584C12.2445 7.56753 11.6758 8.57479 11.3621 9.6894C11.4842 9.93018 11.5845 10.184 11.6609 10.4489H14.2684C14.3468 10.188 14.45 9.9372 14.5751 9.70043C14.2763 8.58081 13.7314 7.56954 12.9989 6.73584ZM11.6619 10.4499C11.778 10.8491 11.8396 11.2725 11.8396 11.7119C11.8396 12.1253 11.785 12.5256 11.6818 12.9048H14.2495C14.1413 12.5266 14.0838 12.1263 14.0838 11.7119C14.0838 11.2725 14.1493 10.8491 14.2704 10.4499H11.6619ZM11.6619 10.4499H11.1914C11.121 10.8602 11.0842 11.2815 11.0842 11.7119C11.0842 12.1183 11.117 12.5165 11.1795 12.9048H11.6818C11.785 12.5266 11.8396 12.1263 11.8396 11.7119C11.8386 11.2725 11.777 10.8481 11.6619 10.4499Z" fill="#707070"/>
<path opacity="0.88" d="M25.1995 3.0801H23.5756V0.0683594H20.5086V3.0801H22.4898V5.6765C21.3374 4.83879 19.923 4.34821 18.3696 4.34821C16.2435 4.34821 14.3299 5.26818 12.9978 6.73694C13.7304 7.57063 14.2753 8.5819 14.575 9.70253C15.2887 8.34213 16.7041 7.41513 18.3349 7.41513C20.6833 7.41513 22.4898 9.33936 22.4898 11.714V11.7371C22.4779 14.1008 20.6764 16.0119 18.3349 16.0119C16.7051 16.0119 15.2887 15.0849 14.575 13.7245C14.4391 13.4667 14.3289 13.1918 14.2475 12.9059H11.1785C11.2241 13.1888 11.2857 13.4657 11.3621 13.7356C11.4435 14.0245 11.5417 14.3054 11.6549 14.5773H14.2912C13.9785 15.3598 13.5398 16.0731 12.9978 16.6891C14.3299 18.1569 16.2435 19.0779 18.3696 19.0779C19.923 19.0779 21.3374 18.5863 22.4898 17.7496C22.8838 17.4626 23.2471 17.1356 23.5756 16.7734V15.9929H25.0059L25.4883 15.3909V3.44027L25.1995 3.0801ZM22.4898 17.7476V19.0779H23.5756V16.7714C23.2481 17.1336 22.8838 17.4616 22.4898 17.7476ZM11.3621 9.68949C11.2916 9.93729 11.235 10.1911 11.1904 10.4489H11.6609C11.5844 10.1841 11.4842 9.93027 11.3621 9.68949Z" fill="#707070"/>
<path opacity="0.88" d="M14.7359 10.4499C14.6942 10.1961 14.6406 9.94628 14.5751 9.70149C14.45 9.93826 14.3468 10.1891 14.2684 10.4499C14.1473 10.8492 14.0818 11.2726 14.0818 11.712C14.0818 12.1253 14.1394 12.5256 14.2476 12.9049H14.7458C14.8054 12.5166 14.8361 12.1183 14.8361 11.712C14.8371 11.2816 14.8024 10.8592 14.7359 10.4499ZM7.71943 4.34717C4.12038 4.34717 1.13175 6.9837 0.540181 10.4489H3.61814C4.15114 8.69122 5.77002 7.41309 7.68469 7.41309C9.31052 7.41309 10.6753 8.33507 11.3622 9.68945C11.6758 8.57384 12.2445 7.56658 12.9989 6.7359C11.7115 5.26714 9.84551 4.34717 7.71943 4.34717ZM10.8014 14.5763C10.049 15.4561 8.94525 16.0109 7.68469 16.0109C5.74521 16.0109 4.10946 14.6987 3.59729 12.9049H11.1785C11.116 12.5166 11.0832 12.1183 11.0832 11.712C11.0832 11.2816 11.12 10.8592 11.1904 10.4499H0.540181C0.469709 10.8602 0.432983 11.2816 0.432983 11.712C0.432983 12.1183 0.465738 12.5166 0.52827 12.9049C1.09205 16.4052 4.09755 19.0768 7.71943 19.0768C9.84551 19.0768 11.7115 18.1568 12.9989 16.6881C12.4391 16.0721 11.9825 15.3578 11.656 14.5763H10.8014Z" fill="#707070"/>
</svg>
