<svg width="20" height="15" viewBox="0 0 20 15" fill="none" xmlns="http://www.w3.org/2000/svg">
<path d="M8.99984 0.666626C4.4165 0.666626 0.502337 3.51746 -1.0835 7.54163C0.502337 11.5658 4.4165 14.4166 8.99984 14.4166C13.5832 14.4166 17.4973 11.5658 19.0832 7.54163C17.4973 3.51746 13.5832 0.666626 8.99984 0.666626ZM8.99984 12.125C6.46984 12.125 4.4165 10.0716 4.4165 7.54163C4.4165 5.01163 6.46984 2.95829 8.99984 2.95829C11.5298 2.95829 13.5832 5.01163 13.5832 7.54163C13.5832 10.0716 11.5298 12.125 8.99984 12.125ZM8.99984 4.79163C7.47817 4.79163 6.24984 6.01996 6.24984 7.54163C6.24984 9.06329 7.47817 10.2916 8.99984 10.2916C10.5215 10.2916 11.7498 9.06329 11.7498 7.54163C11.7498 6.01996 10.5215 4.79163 8.99984 4.79163Z" fill="#E1DDDB"/>
</svg>
