<svg width="19" height="19" viewBox="0 0 19 19" fill="none" xmlns="http://www.w3.org/2000/svg">
<path d="M8.99075 0.833374C3.93075 0.833374 -0.166748 4.94004 -0.166748 10C-0.166748 15.06 3.93075 19.1667 8.99075 19.1667C14.0599 19.1667 18.1666 15.06 18.1666 10C18.1666 4.94004 14.0599 0.833374 8.99075 0.833374ZM15.3433 6.33337H12.6391C12.3458 5.18754 11.9241 4.08754 11.3741 3.07004C13.0608 3.64754 14.4633 4.82087 15.3433 6.33337ZM8.99992 2.70337C9.76075 3.80337 10.3566 5.02254 10.7508 6.33337H7.24908C7.64325 5.02254 8.23909 3.80337 8.99992 2.70337ZM1.90492 11.8334C1.75825 11.2467 1.66659 10.6325 1.66659 10C1.66659 9.36754 1.75825 8.75337 1.90492 8.16671H5.00325C4.92992 8.77171 4.87492 9.37671 4.87492 10C4.87492 10.6234 4.92992 11.2284 5.00325 11.8334H1.90492ZM2.65658 13.6667H5.36075C5.65408 14.8125 6.07575 15.9125 6.62575 16.93C4.93909 16.3525 3.53659 15.1884 2.65658 13.6667ZM5.36075 6.33337H2.65658C3.53659 4.81171 4.93909 3.64754 6.62575 3.07004C6.07575 4.08754 5.65408 5.18754 5.36075 6.33337ZM8.99992 17.2967C8.23909 16.1967 7.64325 14.9775 7.24908 13.6667H10.7508C10.3566 14.9775 9.76075 16.1967 8.99992 17.2967ZM11.1449 11.8334H6.85492C6.77242 11.2284 6.70825 10.6234 6.70825 10C6.70825 9.37671 6.77242 8.76254 6.85492 8.16671H11.1449C11.2274 8.76254 11.2916 9.37671 11.2916 10C11.2916 10.6234 11.2274 11.2284 11.1449 11.8334ZM11.3741 16.93C11.9241 15.9125 12.3458 14.8125 12.6391 13.6667H15.3433C14.4633 15.1792 13.0608 16.3525 11.3741 16.93ZM12.9966 11.8334C13.0699 11.2284 13.1249 10.6234 13.1249 10C13.1249 9.37671 13.0699 8.77171 12.9966 8.16671H16.0949C16.2416 8.75337 16.3333 9.36754 16.3333 10C16.3333 10.6325 16.2416 11.2467 16.0949 11.8334H12.9966Z" fill="#E1DDDB"/>
</svg>
