<svg width="40" height="40" viewBox="0 0 40 40" fill="none" xmlns="http://www.w3.org/2000/svg">
<mask id="path-1-outside-1_44805_110172" maskUnits="userSpaceOnUse" x="2.33337" y="2.33334" width="35" height="35" fill="black">
<rect fill="white" x="2.33337" y="2.33334" width="35" height="35"/>
<path fill-rule="evenodd" clip-rule="evenodd" d="M3.33337 4.37501C3.33337 3.95183 3.48962 3.65887 3.80212 3.46355C4.01697 3.33334 4.1602 3.33334 17.6563 3.33334C31.1524 3.33334 31.2956 3.33334 31.5105 3.46355C31.823 3.65887 31.9792 3.95183 31.9792 4.37501C31.9792 4.94142 31.5886 5.41668 31.1198 5.41668H30.9375V6.11329C30.9375 6.90756 30.8529 7.13543 30.4688 7.3698C30.1758 7.54558 29.6159 7.54558 29.323 7.3698C28.9388 7.13543 28.8542 6.90756 28.8542 6.11329V5.41668H17.6563H6.45837V15.3125V25.2083H14.9089C21.556 25.2018 23.3334 25.1888 23.2487 25.1237C23.204 25.0846 22.1214 24.291 20.7192 23.2633L20.7158 23.2607L20.7156 23.2606L20.0065 22.7409C17.7409 21.0807 16.8164 20.3646 16.6862 20.1693C16.4128 19.7656 16.3347 19.4596 16.3672 18.8998C16.4128 18.0794 16.849 17.3893 17.5586 17.0182C17.8386 16.8685 17.9623 16.8425 18.4375 16.849L18.9909 16.8555L22.2461 18.1641L25.5013 19.4792H26.7709L28.0404 19.4727L27.448 19.3229C25.4883 18.8151 23.9909 17.2787 23.5157 15.2995C23.3594 14.6354 23.3399 13.5091 23.4831 12.8386C23.8477 11.1133 25.0847 9.62241 26.7383 8.93881C28.125 8.35939 29.9675 8.41147 31.2696 9.06251C33.1901 10.0261 34.323 11.849 34.323 13.9844C34.323 14.8373 34.2123 15.4492 33.9258 16.1263C33.2552 17.7344 31.862 18.9323 30.1758 19.3425L29.668 19.4662L32.2396 19.4922L34.8112 19.5117L35.2019 19.7005C35.7032 19.9479 36.198 20.4427 36.4454 20.944L36.6342 21.3346V24.9479V28.5612L36.4454 28.9518C36.198 29.4531 35.7032 29.9479 35.2019 30.1888C34.8763 30.3516 34.7201 30.3841 34.1797 30.4037L33.5417 30.4297V33.2096C33.5417 35.8594 33.5352 35.9896 33.4115 36.1979C33.3399 36.3151 33.1901 36.4649 33.073 36.5365C32.8646 36.6602 32.7344 36.6667 28.8542 36.6667C24.974 36.6667 24.8438 36.6602 24.6355 36.5365C24.5183 36.4649 24.3685 36.3151 24.2969 36.1979C24.1732 35.9896 24.1667 35.8594 24.1667 31.6341V27.2917H21.5625H18.9584V27.8776V28.457L19.3164 28.6263C19.7526 28.8346 20.306 29.3294 20.573 29.7526C21.2045 30.7357 21.211 32.181 20.5925 33.1445C19.9935 34.069 19.03 34.5964 17.9167 34.5964C17.0508 34.5964 16.3737 34.3294 15.7552 33.75C15.0912 33.1315 14.7917 32.4089 14.7917 31.4518C14.7917 30.2149 15.4362 29.1667 16.5039 28.6393L16.875 28.457V27.8776V27.2917H10.9701C5.18884 27.2917 5.05212 27.2852 4.84379 27.1615C4.7266 27.0899 4.57686 26.9401 4.50525 26.8229C4.37504 26.6081 4.37504 26.4714 4.37504 16.0091V5.41668H4.19926C3.724 5.41668 3.33337 4.94142 3.33337 4.37501ZM32.0508 13.0534C31.7318 11.9922 30.8659 11.1198 29.8308 10.8203C28.3399 10.3906 26.8815 10.931 26.0417 12.2136C25.3776 13.2357 25.3516 14.7201 25.9831 15.7162C26.4519 16.4518 27.1159 16.9727 27.8972 17.207C28.4896 17.3893 29.4857 17.3568 30.0456 17.1419C30.8464 16.8294 31.6732 16.0026 31.9857 15.2018C32.2006 14.6419 32.2331 13.6458 32.0508 13.0534ZM34.1927 21.6341C34.043 21.582 32.6433 21.5625 29.4141 21.5625L24.8503 21.556L21.8034 20.332C20.1302 19.6615 18.7826 19.1276 18.8086 19.1537C18.8277 19.1727 19.7063 19.8181 20.9458 20.7287L20.9461 20.7289L20.9681 20.7451C21.418 21.0756 21.9149 21.4406 22.4349 21.8229C24.655 23.457 26.0482 24.5248 26.1263 24.6484C26.2435 24.8438 26.25 25.0586 26.25 29.7136V34.5833H28.8542H31.4584V32.5V30.4167H29.8177C28.2227 30.4167 28.1576 30.4102 27.8451 30.2604C27.142 29.9284 26.7383 29.2708 26.7448 28.4636C26.7513 27.6302 27.1029 27.0964 27.9297 26.6797C28.1706 26.5625 29.2253 26.0612 30.267 25.5729C31.9597 24.7917 32.2136 24.6875 32.5131 24.6875C33.1446 24.6875 33.5417 25.0846 33.5417 25.7162C33.5417 26.4128 33.4571 26.4779 31.3477 27.4609L29.5508 28.3008L31.7253 28.3203C33.1836 28.3333 33.9844 28.3138 34.1472 28.2682C34.5834 28.1445 34.5834 28.125 34.5834 24.9479C34.5834 21.8294 34.5769 21.7708 34.1927 21.6341ZM17.9167 32.4349C18.9063 32.4349 19.2709 31.1263 18.4245 30.612C18.2943 30.5339 18.0925 30.4818 17.9167 30.4818C17.3633 30.4818 16.9401 30.905 16.9401 31.4583C16.9401 32.0117 17.3633 32.4349 17.9167 32.4349ZM8.54171 10.1042C8.54171 9.681 8.69796 9.38803 9.01046 9.19272C9.21879 9.06902 9.349 9.06251 14.7917 9.06251C20.2344 9.06251 20.3646 9.06902 20.573 9.19272C20.8855 9.38803 21.0417 9.681 21.0417 10.1042C21.0417 10.5274 20.8855 10.8203 20.573 11.0156C20.3646 11.1393 20.2344 11.1458 14.7917 11.1458C9.349 11.1458 9.21879 11.1393 9.01046 11.0156C8.69796 10.8203 8.54171 10.5274 8.54171 10.1042ZM9.01046 13.3594C8.69796 13.5547 8.54171 13.8477 8.54171 14.2708C8.54171 14.694 8.69796 14.987 9.01046 15.1823C9.21879 15.306 9.349 15.3125 12.1875 15.3125C15.0261 15.3125 15.1563 15.306 15.3646 15.1823C15.6771 14.987 15.8334 14.694 15.8334 14.2708C15.8334 13.8477 15.6771 13.5547 15.3646 13.3594C15.1563 13.2357 15.0261 13.2292 12.1875 13.2292C9.349 13.2292 9.21879 13.2357 9.01046 13.3594ZM8.54171 22.0833C8.54171 21.6602 8.69796 21.3672 9.01046 21.1719C9.30343 20.9961 9.86332 20.9961 10.1563 21.1719C10.4688 21.3672 10.625 21.6602 10.625 22.0833C10.625 22.7344 10.2344 23.125 9.58337 23.125C8.93233 23.125 8.54171 22.7344 8.54171 22.0833Z"/>
</mask>
<path fill-rule="evenodd" clip-rule="evenodd" d="M3.33337 4.37501C3.33337 3.95183 3.48962 3.65887 3.80212 3.46355C4.01697 3.33334 4.1602 3.33334 17.6563 3.33334C31.1524 3.33334 31.2956 3.33334 31.5105 3.46355C31.823 3.65887 31.9792 3.95183 31.9792 4.37501C31.9792 4.94142 31.5886 5.41668 31.1198 5.41668H30.9375V6.11329C30.9375 6.90756 30.8529 7.13543 30.4688 7.3698C30.1758 7.54558 29.6159 7.54558 29.323 7.3698C28.9388 7.13543 28.8542 6.90756 28.8542 6.11329V5.41668H17.6563H6.45837V15.3125V25.2083H14.9089C21.556 25.2018 23.3334 25.1888 23.2487 25.1237C23.204 25.0846 22.1214 24.291 20.7192 23.2633L20.7158 23.2607L20.7156 23.2606L20.0065 22.7409C17.7409 21.0807 16.8164 20.3646 16.6862 20.1693C16.4128 19.7656 16.3347 19.4596 16.3672 18.8998C16.4128 18.0794 16.849 17.3893 17.5586 17.0182C17.8386 16.8685 17.9623 16.8425 18.4375 16.849L18.9909 16.8555L22.2461 18.1641L25.5013 19.4792H26.7709L28.0404 19.4727L27.448 19.3229C25.4883 18.8151 23.9909 17.2787 23.5157 15.2995C23.3594 14.6354 23.3399 13.5091 23.4831 12.8386C23.8477 11.1133 25.0847 9.62241 26.7383 8.93881C28.125 8.35939 29.9675 8.41147 31.2696 9.06251C33.1901 10.0261 34.323 11.849 34.323 13.9844C34.323 14.8373 34.2123 15.4492 33.9258 16.1263C33.2552 17.7344 31.862 18.9323 30.1758 19.3425L29.668 19.4662L32.2396 19.4922L34.8112 19.5117L35.2019 19.7005C35.7032 19.9479 36.198 20.4427 36.4454 20.944L36.6342 21.3346V24.9479V28.5612L36.4454 28.9518C36.198 29.4531 35.7032 29.9479 35.2019 30.1888C34.8763 30.3516 34.7201 30.3841 34.1797 30.4037L33.5417 30.4297V33.2096C33.5417 35.8594 33.5352 35.9896 33.4115 36.1979C33.3399 36.3151 33.1901 36.4649 33.073 36.5365C32.8646 36.6602 32.7344 36.6667 28.8542 36.6667C24.974 36.6667 24.8438 36.6602 24.6355 36.5365C24.5183 36.4649 24.3685 36.3151 24.2969 36.1979C24.1732 35.9896 24.1667 35.8594 24.1667 31.6341V27.2917H21.5625H18.9584V27.8776V28.457L19.3164 28.6263C19.7526 28.8346 20.306 29.3294 20.573 29.7526C21.2045 30.7357 21.211 32.181 20.5925 33.1445C19.9935 34.069 19.03 34.5964 17.9167 34.5964C17.0508 34.5964 16.3737 34.3294 15.7552 33.75C15.0912 33.1315 14.7917 32.4089 14.7917 31.4518C14.7917 30.2149 15.4362 29.1667 16.5039 28.6393L16.875 28.457V27.8776V27.2917H10.9701C5.18884 27.2917 5.05212 27.2852 4.84379 27.1615C4.7266 27.0899 4.57686 26.9401 4.50525 26.8229C4.37504 26.6081 4.37504 26.4714 4.37504 16.0091V5.41668H4.19926C3.724 5.41668 3.33337 4.94142 3.33337 4.37501ZM32.0508 13.0534C31.7318 11.9922 30.8659 11.1198 29.8308 10.8203C28.3399 10.3906 26.8815 10.931 26.0417 12.2136C25.3776 13.2357 25.3516 14.7201 25.9831 15.7162C26.4519 16.4518 27.1159 16.9727 27.8972 17.207C28.4896 17.3893 29.4857 17.3568 30.0456 17.1419C30.8464 16.8294 31.6732 16.0026 31.9857 15.2018C32.2006 14.6419 32.2331 13.6458 32.0508 13.0534ZM34.1927 21.6341C34.043 21.582 32.6433 21.5625 29.4141 21.5625L24.8503 21.556L21.8034 20.332C20.1302 19.6615 18.7826 19.1276 18.8086 19.1537C18.8277 19.1727 19.7063 19.8181 20.9458 20.7287L20.9461 20.7289L20.9681 20.7451C21.418 21.0756 21.9149 21.4406 22.4349 21.8229C24.655 23.457 26.0482 24.5248 26.1263 24.6484C26.2435 24.8438 26.25 25.0586 26.25 29.7136V34.5833H28.8542H31.4584V32.5V30.4167H29.8177C28.2227 30.4167 28.1576 30.4102 27.8451 30.2604C27.142 29.9284 26.7383 29.2708 26.7448 28.4636C26.7513 27.6302 27.1029 27.0964 27.9297 26.6797C28.1706 26.5625 29.2253 26.0612 30.267 25.5729C31.9597 24.7917 32.2136 24.6875 32.5131 24.6875C33.1446 24.6875 33.5417 25.0846 33.5417 25.7162C33.5417 26.4128 33.4571 26.4779 31.3477 27.4609L29.5508 28.3008L31.7253 28.3203C33.1836 28.3333 33.9844 28.3138 34.1472 28.2682C34.5834 28.1445 34.5834 28.125 34.5834 24.9479C34.5834 21.8294 34.5769 21.7708 34.1927 21.6341ZM17.9167 32.4349C18.9063 32.4349 19.2709 31.1263 18.4245 30.612C18.2943 30.5339 18.0925 30.4818 17.9167 30.4818C17.3633 30.4818 16.9401 30.905 16.9401 31.4583C16.9401 32.0117 17.3633 32.4349 17.9167 32.4349ZM8.54171 10.1042C8.54171 9.681 8.69796 9.38803 9.01046 9.19272C9.21879 9.06902 9.349 9.06251 14.7917 9.06251C20.2344 9.06251 20.3646 9.06902 20.573 9.19272C20.8855 9.38803 21.0417 9.681 21.0417 10.1042C21.0417 10.5274 20.8855 10.8203 20.573 11.0156C20.3646 11.1393 20.2344 11.1458 14.7917 11.1458C9.349 11.1458 9.21879 11.1393 9.01046 11.0156C8.69796 10.8203 8.54171 10.5274 8.54171 10.1042ZM9.01046 13.3594C8.69796 13.5547 8.54171 13.8477 8.54171 14.2708C8.54171 14.694 8.69796 14.987 9.01046 15.1823C9.21879 15.306 9.349 15.3125 12.1875 15.3125C15.0261 15.3125 15.1563 15.306 15.3646 15.1823C15.6771 14.987 15.8334 14.694 15.8334 14.2708C15.8334 13.8477 15.6771 13.5547 15.3646 13.3594C15.1563 13.2357 15.0261 13.2292 12.1875 13.2292C9.349 13.2292 9.21879 13.2357 9.01046 13.3594ZM8.54171 22.0833C8.54171 21.6602 8.69796 21.3672 9.01046 21.1719C9.30343 20.9961 9.86332 20.9961 10.1563 21.1719C10.4688 21.3672 10.625 21.6602 10.625 22.0833C10.625 22.7344 10.2344 23.125 9.58337 23.125C8.93233 23.125 8.54171 22.7344 8.54171 22.0833Z" fill="currentColor"/>
<path d="M3.80212 3.46355L3.69845 3.2925L3.69612 3.29395L3.80212 3.46355ZM31.5105 3.46355L31.6165 3.29394L31.6141 3.29251L31.5105 3.46355ZM30.9375 5.41668V5.21668H30.7375V5.41668H30.9375ZM30.4688 7.3698L30.5717 7.54131L30.573 7.54053L30.4688 7.3698ZM29.323 7.3698L29.2188 7.54054L29.2201 7.5413L29.323 7.3698ZM28.8542 5.41668H29.0542V5.21668H28.8542V5.41668ZM6.45837 5.41668V5.21668H6.25837V5.41668H6.45837ZM6.45837 25.2083H6.25837V25.4083H6.45837V25.2083ZM14.9089 25.2083V25.4083H14.9091L14.9089 25.2083ZM23.2487 25.1237L23.1168 25.2745L23.1268 25.2822L23.2487 25.1237ZM20.7192 23.2633L20.8374 23.1019L20.8374 23.1019L20.7192 23.2633ZM20.7158 23.2607L20.8339 23.0994L20.8334 23.099L20.7158 23.2607ZM20.7156 23.2606L20.5973 23.4219L20.5979 23.4224L20.7156 23.2606ZM20.0065 22.7409L20.1248 22.5796L20.1248 22.5796L20.0065 22.7409ZM16.6862 20.1693L16.8527 20.0583L16.8518 20.0571L16.6862 20.1693ZM16.3672 18.8998L16.5669 18.9114L16.5669 18.9108L16.3672 18.8998ZM17.5586 17.0182L17.6513 17.1955L17.653 17.1946L17.5586 17.0182ZM18.4375 16.849L18.4348 17.049L18.4352 17.049L18.4375 16.849ZM18.9909 16.8555L19.0655 16.6699L19.0308 16.6559L18.9933 16.6555L18.9909 16.8555ZM22.2461 18.1641L22.3211 17.9786L22.3207 17.9785L22.2461 18.1641ZM25.5013 19.4792L25.4264 19.6646L25.4625 19.6792H25.5013V19.4792ZM26.7709 19.4792V19.6792L26.7719 19.6792L26.7709 19.4792ZM28.0404 19.4727L28.0414 19.6727L28.0894 19.2788L28.0404 19.4727ZM27.448 19.3229L27.3978 19.5165L27.3989 19.5168L27.448 19.3229ZM23.5157 15.2995L23.321 15.3453L23.3212 15.3462L23.5157 15.2995ZM23.4831 12.8386L23.6787 12.8803L23.6788 12.8799L23.4831 12.8386ZM26.7383 8.93881L26.8147 9.12364L26.8154 9.12335L26.7383 8.93881ZM31.2696 9.06251L31.3593 8.88375L31.359 8.88363L31.2696 9.06251ZM33.9258 16.1263L33.7416 16.0484L33.7412 16.0493L33.9258 16.1263ZM30.1758 19.3425L30.1286 19.1481L30.1285 19.1481L30.1758 19.3425ZM29.668 19.4662L29.6207 19.2718L29.666 19.6661L29.668 19.4662ZM32.2396 19.4922L32.2376 19.6922L32.2381 19.6922L32.2396 19.4922ZM34.8112 19.5117L34.8983 19.3317L34.8578 19.3121L34.8128 19.3117L34.8112 19.5117ZM35.2019 19.7005L35.2904 19.5212L35.2889 19.5205L35.2019 19.7005ZM36.4454 20.944L36.6254 20.857L36.6247 20.8555L36.4454 20.944ZM36.6342 21.3346H36.8342V21.2888L36.8142 21.2476L36.6342 21.3346ZM36.6342 28.5612L36.8142 28.6482L36.8342 28.607V28.5612H36.6342ZM36.4454 28.9518L36.6247 29.0403L36.6254 29.0389L36.4454 28.9518ZM35.2019 30.1888L35.1152 30.0085L35.1124 30.0099L35.2019 30.1888ZM34.1797 30.4037L34.1725 30.2038L34.1716 30.2038L34.1797 30.4037ZM33.5417 30.4297L33.5335 30.2299L33.3417 30.2377V30.4297H33.5417ZM33.4115 36.1979L33.5822 36.3022L33.5835 36.3L33.4115 36.1979ZM33.073 36.5365L33.1751 36.7085L33.1772 36.7071L33.073 36.5365ZM24.6355 36.5365L24.5312 36.7071L24.5333 36.7084L24.6355 36.5365ZM24.2969 36.1979L24.1249 36.3L24.1263 36.3022L24.2969 36.1979ZM24.1667 27.2917H24.3667V27.0917H24.1667V27.2917ZM18.9584 27.2917V27.0917H18.7584V27.2917H18.9584ZM18.9584 28.457H18.7584V28.5837L18.8729 28.6379L18.9584 28.457ZM19.3164 28.6263L19.4026 28.4458L19.4019 28.4455L19.3164 28.6263ZM20.573 29.7526L20.4038 29.8593L20.4047 29.8607L20.573 29.7526ZM20.5925 33.1445L20.7603 33.2533L20.7608 33.2526L20.5925 33.1445ZM15.7552 33.75L15.892 33.6041L15.8916 33.6037L15.7552 33.75ZM16.5039 28.6393L16.4158 28.4598L16.4154 28.46L16.5039 28.6393ZM16.875 28.457L16.9632 28.6366L17.075 28.5816V28.457H16.875ZM16.875 27.2917H17.075V27.0917H16.875V27.2917ZM4.84379 27.1615L4.73949 27.3321L4.74168 27.3334L4.84379 27.1615ZM4.50525 26.8229L4.33421 26.9266L4.33459 26.9272L4.50525 26.8229ZM4.37504 5.41668H4.57504V5.21668H4.37504V5.41668ZM29.8308 10.8203L29.8864 10.6282L29.8862 10.6281L29.8308 10.8203ZM32.0508 13.0534L31.8593 13.111L31.8597 13.1122L32.0508 13.0534ZM26.0417 12.2136L25.8744 12.104L25.874 12.1046L26.0417 12.2136ZM25.9831 15.7162L25.8142 15.8232L25.8144 15.8236L25.9831 15.7162ZM27.8972 17.207L27.956 17.0159L27.9546 17.0155L27.8972 17.207ZM30.0456 17.1419L30.1173 17.3287L30.1183 17.3283L30.0456 17.1419ZM31.9857 15.2018L32.172 15.2745L32.1724 15.2735L31.9857 15.2018ZM29.4141 21.5625L29.4138 21.7625H29.4141V21.5625ZM34.1927 21.6341L34.2598 21.4457L34.2585 21.4452L34.1927 21.6341ZM24.8503 21.556L24.7757 21.7416L24.8115 21.7559L24.85 21.756L24.8503 21.556ZM21.8034 20.332L21.878 20.1465L21.8778 20.1464L21.8034 20.332ZM18.8086 19.1537L18.6672 19.2951L18.6672 19.2951L18.8086 19.1537ZM20.9458 20.7287L20.8274 20.8899L20.8278 20.8902L20.9458 20.7287ZM20.9461 20.7289L21.0645 20.5677L21.0641 20.5675L20.9461 20.7289ZM20.9681 20.7451L21.0865 20.5839L21.0865 20.5839L20.9681 20.7451ZM22.4349 21.8229L22.5535 21.6619L22.5534 21.6618L22.4349 21.8229ZM26.1263 24.6484L26.2979 24.5455L26.2954 24.5417L26.1263 24.6484ZM26.25 34.5833H26.05V34.7833H26.25V34.5833ZM31.4584 34.5833V34.7833H31.6584V34.5833H31.4584ZM31.4584 30.4167H31.6584V30.2167H31.4584V30.4167ZM27.8451 30.2604L27.9315 30.0801L27.9305 30.0796L27.8451 30.2604ZM26.7448 28.4636L26.9448 28.4652V28.4651L26.7448 28.4636ZM27.9297 26.6797L27.8422 26.4998L27.8397 26.5011L27.9297 26.6797ZM30.267 25.5729L30.1832 25.3913L30.1821 25.3918L30.267 25.5729ZM31.3477 27.4609L31.2632 27.2797L31.263 27.2798L31.3477 27.4609ZM29.5508 28.3008L29.4661 28.1196L29.549 28.5008L29.5508 28.3008ZM31.7253 28.3203L31.7235 28.5203H31.7235L31.7253 28.3203ZM34.1472 28.2682L34.2011 28.4608L34.2017 28.4607L34.1472 28.2682ZM18.4245 30.612L18.5284 30.4411L18.5274 30.4405L18.4245 30.612ZM9.01046 9.19272L8.90832 9.0207L8.90446 9.02312L9.01046 9.19272ZM20.573 9.19272L20.679 9.02308L20.6751 9.02075L20.573 9.19272ZM20.573 11.0156L20.6751 11.1877L20.679 11.1852L20.573 11.0156ZM9.01046 11.0156L8.90443 11.1853L8.90835 11.1876L9.01046 11.0156ZM9.01046 13.3594L8.90832 13.1874L8.90446 13.1898L9.01046 13.3594ZM9.01046 15.1823L8.90443 15.3519L8.90835 15.3543L9.01046 15.1823ZM15.3646 15.1823L15.4668 15.3543L15.4706 15.3519L15.3646 15.1823ZM15.3646 13.3594L15.4707 13.1897L15.4667 13.1874L15.3646 13.3594ZM9.01046 21.1719L8.90754 21.0004L8.90446 21.0023L9.01046 21.1719ZM10.1563 21.1719L10.2623 21.0023L10.2592 21.0004L10.1563 21.1719ZM3.69612 3.29395C3.51325 3.40825 3.36955 3.55572 3.27304 3.74171C3.17707 3.92666 3.13337 4.13878 3.13337 4.37501H3.53337C3.53337 4.18806 3.5678 4.04211 3.62808 3.92595C3.68782 3.81083 3.7785 3.71417 3.90812 3.63315L3.69612 3.29395ZM17.6563 3.13334C10.9089 3.13334 7.49776 3.13334 5.74688 3.14963C4.87313 3.15776 4.40704 3.16996 4.14524 3.18879C4.01497 3.19816 3.92552 3.20976 3.85794 3.22632C3.78146 3.24507 3.73664 3.26938 3.69846 3.29251L3.90578 3.63459C3.92132 3.62518 3.92797 3.621 3.95317 3.61482C3.98726 3.60647 4.04969 3.5967 4.17394 3.58776C4.42116 3.56997 4.87467 3.55776 5.7506 3.54961C7.49907 3.53335 10.9075 3.53334 17.6563 3.53334V3.13334ZM31.6141 3.29251C31.5759 3.26938 31.5311 3.24507 31.4546 3.22632C31.3871 3.20976 31.2976 3.19816 31.1673 3.18879C30.9055 3.16996 30.4395 3.15776 29.5657 3.14963C27.8148 3.13334 24.4036 3.13334 17.6563 3.13334V3.53334C24.405 3.53334 27.8135 3.53335 29.562 3.54961C30.4379 3.55776 30.8914 3.56997 31.1386 3.58776C31.2629 3.5967 31.3253 3.60647 31.3594 3.61482C31.3846 3.621 31.3913 3.62518 31.4068 3.63459L31.6141 3.29251ZM32.1792 4.37501C32.1792 4.13878 32.1355 3.92666 32.0395 3.74171C31.943 3.55572 31.7993 3.40825 31.6165 3.29395L31.4045 3.63315C31.5341 3.71417 31.6248 3.81083 31.6845 3.92595C31.7448 4.04211 31.7792 4.18806 31.7792 4.37501H32.1792ZM31.1198 5.61668C31.7335 5.61668 32.1792 5.01392 32.1792 4.37501H31.7792C31.7792 4.86892 31.4437 5.21668 31.1198 5.21668V5.61668ZM30.9375 5.61668H31.1198V5.21668H30.9375V5.61668ZM31.1375 6.11329V5.41668H30.7375V6.11329H31.1375ZM30.573 7.54053C30.788 7.4093 30.9445 7.26304 31.0346 7.02137C31.1178 6.79814 31.1375 6.50905 31.1375 6.11329H30.7375C30.7375 6.51181 30.7149 6.73378 30.6598 6.88164C30.6116 7.01107 30.5337 7.09594 30.3646 7.19907L30.573 7.54053ZM29.2201 7.5413C29.4085 7.65434 29.6616 7.70164 29.8959 7.70164C30.1302 7.70164 30.3833 7.65434 30.5717 7.5413L30.3659 7.1983C30.2613 7.26105 30.088 7.30164 29.8959 7.30164C29.7038 7.30164 29.5304 7.26105 29.4259 7.1983L29.2201 7.5413ZM28.6542 6.11329C28.6542 6.50905 28.6739 6.79814 28.7571 7.02137C28.8472 7.26304 29.0037 7.4093 29.2188 7.54053L29.4271 7.19908C29.2581 7.09594 29.1802 7.01107 29.1319 6.88164C29.0768 6.73378 29.0542 6.51181 29.0542 6.11329H28.6542ZM28.6542 5.41668V6.11329H29.0542V5.41668H28.6542ZM17.6563 5.61668H28.8542V5.21668H17.6563V5.61668ZM6.45837 5.61668H17.6563V5.21668H6.45837V5.61668ZM6.65837 15.3125V5.41668H6.25837V15.3125H6.65837ZM6.65837 25.2083V15.3125H6.25837V25.2083H6.65837ZM14.9089 25.0083H6.45837V25.4083H14.9089V25.0083ZM23.1268 25.2822C23.1148 25.273 23.0845 25.2476 23.066 25.2018C23.043 25.145 23.0483 25.0825 23.0766 25.0319C23.0994 24.9912 23.1301 24.9704 23.1421 24.9629C23.1563 24.954 23.1682 24.9494 23.173 24.9476C23.187 24.9425 23.1899 24.9439 23.1628 24.9473C23.1182 24.9528 23.037 24.9584 22.908 24.9636C22.6528 24.974 22.2336 24.9819 21.6013 24.988C20.3377 25.0002 18.2325 25.0051 14.9087 25.0083L14.9091 25.4083C18.2324 25.4051 20.3395 25.4002 21.6052 25.388C22.2375 25.3819 22.6622 25.3739 22.9242 25.3633C23.0538 25.3581 23.1495 25.352 23.2118 25.3443C23.2382 25.341 23.2771 25.3355 23.3111 25.323C23.3209 25.3194 23.3368 25.3129 23.354 25.3021C23.369 25.2928 23.4017 25.2701 23.4256 25.2274C23.455 25.1749 23.4605 25.1104 23.4367 25.0516C23.4173 25.0039 23.3854 24.9765 23.3707 24.9652L23.1268 25.2822ZM20.6009 23.4246C21.3021 23.9385 21.9232 24.3937 22.3746 24.7254C22.6003 24.8912 22.7834 25.0261 22.9128 25.1218C22.9776 25.1697 23.0286 25.2076 23.0648 25.2347C23.1054 25.2652 23.1188 25.2757 23.117 25.2742L23.3804 24.9732C23.3611 24.9563 23.2743 24.8916 23.1508 24.8003C23.0208 24.7041 22.8372 24.5689 22.6114 24.403C22.1598 24.0712 21.5385 23.6158 20.8374 23.1019L20.6009 23.4246ZM20.5976 23.4221L20.601 23.4246L20.8374 23.1019L20.8339 23.0994L20.5976 23.4221ZM20.5979 23.4224L20.5981 23.4225L20.8334 23.099L20.8332 23.0989L20.5979 23.4224ZM19.8883 22.9022L20.5973 23.4219L20.8338 23.0993L20.1248 22.5796L19.8883 22.9022ZM16.5198 20.2802C16.5702 20.3557 16.6743 20.4543 16.8111 20.5718C16.9552 20.6956 17.1569 20.8577 17.4231 21.0639C17.956 21.4766 18.7554 22.072 19.8883 22.9022L20.1248 22.5796C18.9921 21.7496 18.1964 21.1569 17.6681 20.7477C17.4037 20.5429 17.2082 20.3856 17.0717 20.2683C16.9277 20.1446 16.8674 20.0805 16.8526 20.0583L16.5198 20.2802ZM16.1676 18.8881C16.1507 19.1787 16.1615 19.4176 16.2181 19.642C16.275 19.868 16.3753 20.0668 16.5207 20.2815L16.8518 20.0571C16.7238 19.8681 16.6482 19.7121 16.6059 19.5442C16.5632 19.3747 16.5512 19.1807 16.5669 18.9114L16.1676 18.8881ZM17.466 16.841C16.6917 17.2459 16.2169 18.0004 16.1675 18.8887L16.5669 18.9108C16.6087 18.1584 17.0063 17.5328 17.6513 17.1955L17.466 16.841ZM18.4403 16.649C18.2027 16.6457 18.0343 16.6499 17.8866 16.6787C17.7326 16.7087 17.6113 16.7633 17.4643 16.8419L17.653 17.1946C17.7859 17.1235 17.8664 17.0902 17.9631 17.0713C18.066 17.0513 18.1971 17.0457 18.4348 17.049L18.4403 16.649ZM18.9933 16.6555L18.4399 16.649L18.4352 17.049L18.9886 17.0555L18.9933 16.6555ZM22.3207 17.9785L19.0655 16.6699L18.9163 17.041L22.1715 18.3496L22.3207 17.9785ZM25.5763 19.2937L22.3211 17.9786L22.1712 18.3495L25.4264 19.6646L25.5763 19.2937ZM26.7709 19.2792H25.5013V19.6792H26.7709V19.2792ZM28.0394 19.2727L26.7698 19.2792L26.7719 19.6792L28.0414 19.6727L28.0394 19.2727ZM27.3989 19.5168L27.9914 19.6666L28.0894 19.2788L27.497 19.129L27.3989 19.5168ZM23.3212 15.3462C23.8135 17.3963 25.3657 18.99 27.3978 19.5165L27.4981 19.1293C25.6109 18.6403 24.1683 17.161 23.7101 15.2528L23.3212 15.3462ZM23.2875 12.7968C23.1379 13.4974 23.1582 14.6536 23.321 15.3453L23.7103 15.2537C23.5606 14.6173 23.5419 13.5209 23.6787 12.8803L23.2875 12.7968ZM26.6619 8.75398C24.9476 9.46265 23.6657 11.007 23.2874 12.7972L23.6788 12.8799C24.0297 11.2196 25.2217 9.78216 26.8147 9.12364L26.6619 8.75398ZM31.359 8.88363C30.0032 8.20573 28.0999 8.15314 26.6612 8.75428L26.8154 9.12335C28.1502 8.56564 29.9318 8.61721 31.1801 9.2414L31.359 8.88363ZM34.523 13.9844C34.523 11.7725 33.3467 9.88085 31.3593 8.88375L31.1799 9.24128C33.0336 10.1713 34.123 11.9254 34.123 13.9844H34.523ZM34.11 16.2042C34.4087 15.4982 34.523 14.859 34.523 13.9844H34.123C34.123 14.8155 34.0159 15.4002 33.7416 16.0484L34.11 16.2042ZM30.2231 19.5368C31.9717 19.1114 33.4156 17.8695 34.1104 16.2033L33.7412 16.0493C33.0949 17.5992 31.7523 18.7532 30.1286 19.1481L30.2231 19.5368ZM29.7153 19.6605L30.2232 19.5368L30.1285 19.1481L29.6207 19.2718L29.7153 19.6605ZM32.2416 19.2922L29.67 19.2662L29.666 19.6661L32.2376 19.6922L32.2416 19.2922ZM34.8128 19.3117L32.2411 19.2922L32.2381 19.6922L34.8097 19.7117L34.8128 19.3117ZM35.2889 19.5205L34.8983 19.3317L34.7242 19.6918L35.1148 19.8806L35.2889 19.5205ZM36.6247 20.8555C36.3578 20.3148 35.8311 19.788 35.2904 19.5212L35.1134 19.8799C35.5752 20.1078 36.0381 20.5707 36.266 21.0325L36.6247 20.8555ZM36.8142 21.2476L36.6254 20.857L36.2653 21.0311L36.4541 21.4217L36.8142 21.2476ZM36.8342 24.9479V21.3346H36.4342V24.9479H36.8342ZM36.8342 28.5612V24.9479H36.4342V28.5612H36.8342ZM36.6254 29.0389L36.8142 28.6482L36.4541 28.4742L36.2653 28.8648L36.6254 29.0389ZM35.2885 30.3691C35.8309 30.1084 36.3579 29.5809 36.6247 29.0403L36.266 28.8633C36.038 29.3254 35.5754 29.7874 35.1152 30.0085L35.2885 30.3691ZM34.187 30.6035C34.4574 30.5938 34.6468 30.5805 34.8125 30.5457C34.9833 30.5098 35.1209 30.4529 35.2913 30.3677L35.1124 30.0099C34.9573 30.0875 34.8541 30.1282 34.7303 30.1542C34.6014 30.1813 34.4424 30.194 34.1725 30.2038L34.187 30.6035ZM33.5499 30.6295L34.1879 30.6035L34.1716 30.2038L33.5335 30.2299L33.5499 30.6295ZM33.7417 33.2096V30.4297H33.3417V33.2096H33.7417ZM33.5835 36.3C33.6221 36.2349 33.6557 36.1675 33.6795 36.0582C33.7013 35.9578 33.7142 35.8251 33.7228 35.6281C33.7401 35.2327 33.7417 34.5319 33.7417 33.2096H33.3417C33.3417 34.5371 33.34 35.2263 33.3232 35.6106C33.3147 35.8034 33.3028 35.9078 33.2886 35.9733C33.2763 36.0298 33.2627 36.0568 33.2395 36.0958L33.5835 36.3ZM33.1772 36.7071C33.3215 36.619 33.494 36.4465 33.5822 36.3022L33.2408 36.0936C33.1858 36.1838 33.0588 36.3107 32.9687 36.3658L33.1772 36.7071ZM28.8542 36.8667C30.7924 36.8667 31.7992 36.8651 32.3468 36.8479C32.6191 36.8393 32.7887 36.8267 32.9063 36.806C33.0357 36.7831 33.1055 36.7497 33.1751 36.7084L32.9708 36.3645C32.9362 36.3851 32.9116 36.3989 32.8368 36.412C32.7501 36.4273 32.6056 36.4395 32.3343 36.4481C31.7946 36.465 30.7963 36.4667 28.8542 36.4667V36.8667ZM24.5333 36.7084C24.6029 36.7497 24.6727 36.7831 24.8021 36.806C24.9197 36.8267 25.0894 36.8393 25.3616 36.8479C25.9092 36.8651 26.916 36.8667 28.8542 36.8667V36.4667C26.9122 36.4667 25.9138 36.465 25.3742 36.4481C25.1028 36.4395 24.9583 36.4273 24.8716 36.412C24.7968 36.3988 24.7722 36.3851 24.7376 36.3645L24.5333 36.7084ZM24.1263 36.3022C24.2144 36.4465 24.3869 36.619 24.5312 36.7071L24.7397 36.3658C24.6496 36.3107 24.5226 36.1838 24.4676 36.0936L24.1263 36.3022ZM23.9667 31.6341C23.9667 33.7449 23.9683 34.8377 23.9855 35.4282C23.9941 35.7217 24.0066 35.9018 24.0271 36.0242C24.0497 36.1589 24.083 36.2293 24.1249 36.3L24.4689 36.0958C24.449 36.0624 24.4351 36.0384 24.4216 35.9581C24.4061 35.8654 24.3939 35.7098 24.3853 35.4166C24.3684 34.8335 24.3667 33.7486 24.3667 31.6341H23.9667ZM23.9667 27.2917V31.6341H24.3667V27.2917H23.9667ZM21.5625 27.4917H24.1667V27.0917H21.5625V27.4917ZM18.9584 27.4917H21.5625V27.0917H18.9584V27.4917ZM19.1584 27.8776V27.2917H18.7584V27.8776H19.1584ZM19.1584 28.457V27.8776H18.7584V28.457H19.1584ZM19.4019 28.4455L19.0438 28.2762L18.8729 28.6379L19.231 28.8071L19.4019 28.4455ZM20.7421 29.6459C20.4556 29.1917 19.8738 28.6709 19.4026 28.4458L19.2303 28.8068C19.6315 28.9984 20.1565 29.4672 20.4038 29.8593L20.7421 29.6459ZM20.7608 33.2526C21.4224 32.2218 21.4141 30.692 20.7412 29.6445L20.4047 29.8607C20.9948 30.7793 20.9995 32.1402 20.4242 33.0365L20.7608 33.2526ZM17.9167 34.7964C19.0978 34.7964 20.1245 34.2346 20.7603 33.2533L20.4246 33.0358C19.8625 33.9034 18.9621 34.3964 17.9167 34.3964V34.7964ZM15.6185 33.896C16.2746 34.5106 17.0008 34.7964 17.9167 34.7964V34.3964C17.1009 34.3964 16.4729 34.1482 15.892 33.6041L15.6185 33.896ZM14.5917 31.4518C14.5917 32.4601 14.9112 33.2372 15.6189 33.8964L15.8916 33.6037C15.2711 33.0258 14.9917 32.3576 14.9917 31.4518H14.5917ZM16.4154 28.46C15.2772 29.0222 14.5917 30.1413 14.5917 31.4518H14.9917C14.9917 30.2885 15.5953 29.3112 16.5925 28.8187L16.4154 28.46ZM16.7869 28.2775L16.4158 28.4598L16.5921 28.8188L16.9632 28.6366L16.7869 28.2775ZM16.675 27.8776V28.457H17.075V27.8776H16.675ZM16.675 27.2917V27.8776H17.075V27.2917H16.675ZM10.9701 27.4917H16.875V27.0917H10.9701V27.4917ZM4.74168 27.3334C4.77293 27.352 4.81121 27.3733 4.86473 27.3917C4.91614 27.4094 4.97495 27.4221 5.04899 27.4322C5.19406 27.4519 5.42186 27.4644 5.81273 27.4729C6.59841 27.4901 8.08086 27.4917 10.9701 27.4917V27.0917C8.07808 27.0917 6.60155 27.09 5.82146 27.073C5.42946 27.0645 5.22268 27.0521 5.10287 27.0358C5.04446 27.0279 5.01324 27.0198 4.99472 27.0134C4.9783 27.0078 4.96673 27.0019 4.9459 26.9895L4.74168 27.3334ZM4.33459 26.9272C4.42275 27.0715 4.59524 27.244 4.7395 27.3321L4.94808 26.9908C4.85797 26.9357 4.73097 26.8088 4.67591 26.7186L4.33459 26.9272ZM4.17504 16.0091C4.17504 21.2393 4.17504 23.8908 4.19133 25.2612C4.19946 25.9445 4.21166 26.3162 4.23075 26.5316C4.24031 26.6393 4.25229 26.7172 4.26961 26.7794C4.28875 26.8481 4.31272 26.8911 4.33421 26.9266L4.67629 26.7193C4.66523 26.701 4.66071 26.6928 4.65493 26.672C4.64733 26.6447 4.63795 26.595 4.62919 26.4962C4.61166 26.2986 4.59945 25.942 4.5913 25.2564C4.57504 23.8892 4.57504 21.2411 4.57504 16.0091H4.17504ZM4.17504 5.41668V16.0091H4.57504V5.41668H4.17504ZM4.19926 5.61668H4.37504V5.21668H4.19926V5.61668ZM3.13337 4.37501C3.13337 5.01497 3.57994 5.61668 4.19926 5.61668V5.21668C3.86806 5.21668 3.53337 4.86787 3.53337 4.37501H3.13337ZM29.7752 11.0124C30.7427 11.2924 31.5591 12.1123 31.8593 13.111L32.2424 12.9958C31.9045 11.8721 30.9891 10.9472 29.8864 10.6282L29.7752 11.0124ZM26.209 12.3231C27.0004 11.1146 28.3681 10.6069 29.7754 11.0125L29.8862 10.6281C28.3116 10.1744 26.7627 10.7474 25.8744 12.104L26.209 12.3231ZM26.152 15.6091C25.5643 14.6821 25.586 13.2821 26.2094 12.3225L25.874 12.1046C25.1693 13.1893 25.1389 14.7581 25.8142 15.8232L26.152 15.6091ZM27.9546 17.0155C27.2234 16.7961 26.5971 16.3076 26.1518 15.6087L25.8144 15.8236C26.3066 16.5961 27.0085 17.1492 27.8397 17.3986L27.9546 17.0155ZM29.974 16.9552C29.7224 17.0518 29.3577 17.1117 28.9774 17.1235C28.5974 17.1353 28.224 17.0984 27.956 17.0159L27.8384 17.3982C28.1628 17.498 28.5837 17.5359 28.9898 17.5233C29.3956 17.5107 29.809 17.447 30.1173 17.3287L29.974 16.9552ZM31.7994 15.1291C31.6554 15.4982 31.3884 15.8825 31.0574 16.2136C30.7263 16.5446 30.342 16.8116 29.9729 16.9556L30.1183 17.3283C30.55 17.1598 30.9795 16.8571 31.3402 16.4964C31.7009 16.1357 32.0036 15.7063 32.172 15.2745L31.7994 15.1291ZM31.8597 13.1122C31.9421 13.3803 31.9791 13.7536 31.9673 14.1336C31.9555 14.5139 31.8955 14.8786 31.799 15.1302L32.1724 15.2735C32.2907 14.9652 32.3545 14.5518 32.3671 14.146C32.3797 13.7399 32.3418 13.319 32.242 12.9946L31.8597 13.1122ZM29.4141 21.7625C31.0286 21.7625 32.1846 21.7674 32.9553 21.7788C33.3408 21.7845 33.6283 21.7917 33.828 21.8008C33.928 21.8053 34.0039 21.8101 34.0582 21.8152C34.1209 21.8211 34.1349 21.8258 34.127 21.823L34.2585 21.4452C34.2132 21.4295 34.1507 21.4221 34.0955 21.417C34.032 21.411 33.9488 21.4058 33.846 21.4012C33.6402 21.3919 33.3479 21.3845 32.9612 21.3788C32.1873 21.3674 31.0288 21.3625 29.4141 21.3625V21.7625ZM24.85 21.756L29.4138 21.7625L29.4144 21.3625L24.8506 21.356L24.85 21.756ZM21.7289 20.5176L24.7757 21.7416L24.9249 21.3704L21.878 20.1465L21.7289 20.5176ZM18.9501 19.0122C18.9537 19.0159 18.987 19.0473 19.0015 19.1014C19.0104 19.1348 19.014 19.1847 18.9898 19.237C18.9661 19.2881 18.9276 19.3163 18.9007 19.3303C18.8557 19.3537 18.8146 19.3527 18.8092 19.3527C18.796 19.3528 18.7858 19.3514 18.7814 19.3508C18.7671 19.3487 18.7574 19.3454 18.7623 19.3469C18.7658 19.3479 18.7756 19.3511 18.794 19.3577C18.8294 19.3703 18.8847 19.391 18.9589 19.4193C19.1067 19.4758 19.3242 19.5607 19.5955 19.6677C20.1377 19.8815 20.8925 20.1824 21.729 20.5177L21.8778 20.1464C21.0411 19.8111 20.2855 19.5098 19.7422 19.2956C19.4706 19.1885 19.2515 19.1029 19.1017 19.0457C19.027 19.0171 18.9682 18.9951 18.9284 18.9809C18.9092 18.9741 18.8911 18.9679 18.8768 18.9636C18.8729 18.9624 18.857 18.9575 18.8389 18.9549C18.8337 18.9542 18.8227 18.9527 18.8089 18.9527C18.8029 18.9527 18.7614 18.9519 18.7161 18.9754C18.6891 18.9895 18.6505 19.0177 18.6268 19.0689C18.6025 19.1213 18.6061 19.1713 18.6151 19.2049C18.6296 19.2592 18.6632 19.291 18.6672 19.2951L18.9501 19.0122ZM21.0642 20.5675C20.4444 20.1122 19.915 19.7233 19.5381 19.4458C19.3497 19.307 19.1995 19.1963 19.0954 19.1191C19.0433 19.0804 19.003 19.0504 18.9753 19.0296C18.9613 19.0191 18.9511 19.0113 18.9442 19.006C18.93 18.9951 18.9396 19.0017 18.9501 19.0122L18.6672 19.2951C18.6801 19.308 18.6987 19.3218 18.7001 19.3229C18.7088 19.3296 18.7206 19.3385 18.7349 19.3493C18.7637 19.371 18.8049 19.4016 18.8572 19.4404C18.9619 19.518 19.1124 19.6291 19.301 19.7679C19.678 20.0456 20.2077 20.4346 20.8274 20.8899L21.0642 20.5675ZM21.0641 20.5675L21.0638 20.5672L20.8278 20.8902L20.8281 20.8904L21.0641 20.5675ZM21.0865 20.5839L21.0645 20.5677L20.8277 20.8901L20.8497 20.9063L21.0865 20.5839ZM22.5534 21.6618C22.0333 21.2795 21.5365 20.9145 21.0865 20.5839L20.8497 20.9063C21.2996 21.2368 21.7964 21.6018 22.3165 21.9841L22.5534 21.6618ZM26.2954 24.5417C26.2775 24.5132 26.253 24.488 26.2377 24.4728C26.2187 24.4538 26.1954 24.4323 26.169 24.4089C26.1159 24.3618 26.0438 24.3015 25.9548 24.2293C25.7764 24.0845 25.5238 23.887 25.2055 23.6433C24.5685 23.1556 23.664 22.4793 22.5535 21.6619L22.3164 21.984C23.4259 22.8007 24.3281 23.4753 24.9623 23.9609C25.2795 24.2038 25.5287 24.3986 25.7028 24.5399C25.79 24.6107 25.857 24.6668 25.9037 24.7082C25.9272 24.729 25.944 24.7447 25.9551 24.7558C25.9699 24.7706 25.9655 24.7682 25.9572 24.7552L26.2954 24.5417ZM26.45 29.7136C26.45 27.3876 26.4484 26.1668 26.4321 25.5037C26.4162 24.8585 26.3889 24.6972 26.2978 24.5455L25.9548 24.7513C25.981 24.795 26.0156 24.8388 26.0322 25.5136C26.0484 26.1704 26.05 27.3846 26.05 29.7136H26.45ZM26.45 34.5833V29.7136H26.05V34.5833H26.45ZM28.8542 34.3833H26.25V34.7833H28.8542V34.3833ZM31.4584 34.3833H28.8542V34.7833H31.4584V34.3833ZM31.2584 32.5V34.5833H31.6584V32.5H31.2584ZM31.2584 30.4167V32.5H31.6584V30.4167H31.2584ZM29.8177 30.6167H31.4584V30.2167H29.8177V30.6167ZM27.7587 30.4408C27.8379 30.4788 27.9133 30.5136 28.0053 30.5402C28.0976 30.5668 28.1992 30.5833 28.3345 30.5941C28.5993 30.6152 29.0247 30.6167 29.8177 30.6167V30.2167C29.0158 30.2167 28.611 30.2149 28.3664 30.1953C28.247 30.1858 28.1741 30.1726 28.1164 30.1559C28.0585 30.1391 28.0085 30.117 27.9315 30.0801L27.7587 30.4408ZM26.5448 28.4619C26.5377 29.3437 26.9829 30.0745 27.7597 30.4413L27.9305 30.0796C27.301 29.7823 26.9389 29.198 26.9448 28.4652L26.5448 28.4619ZM27.8397 26.5011C27.4066 26.7194 27.0802 26.9772 26.863 27.3049C26.6446 27.6342 26.5483 28.0164 26.5448 28.462L26.9448 28.4651C26.9479 28.0774 27.0306 27.7759 27.1964 27.5259C27.3633 27.2741 27.6261 27.0567 28.0197 26.8583L27.8397 26.5011ZM30.1821 25.3918C29.1404 25.8801 28.0845 26.382 27.8422 26.4999L28.0172 26.8595C28.2567 26.743 29.3102 26.2423 30.3519 25.754L30.1821 25.3918ZM32.5131 24.4875C32.3273 24.4875 32.1621 24.5234 31.8389 24.6513C31.52 24.7775 31.0274 25.0017 30.1832 25.3913L30.3508 25.7545C31.1992 25.3629 31.68 25.1444 31.9861 25.0232C32.2879 24.9038 32.3993 24.8875 32.5131 24.8875V24.4875ZM33.7417 25.7162C33.7417 25.3579 33.6282 25.0462 33.4056 24.8236C33.183 24.601 32.8713 24.4875 32.5131 24.4875V24.8875C32.7863 24.8875 32.9889 24.9726 33.1228 25.1064C33.2566 25.2403 33.3417 25.4429 33.3417 25.7162H33.7417ZM31.4322 27.6422C31.9588 27.3968 32.3629 27.2069 32.6712 27.0497C32.9776 26.8936 33.2011 26.764 33.3601 26.6377C33.5239 26.5076 33.6283 26.3739 33.6847 26.2092C33.7378 26.0543 33.7417 25.888 33.7417 25.7162H33.3417C33.3417 25.8926 33.335 25.9957 33.3063 26.0796C33.2809 26.1538 33.2323 26.2284 33.1113 26.3245C32.9855 26.4244 32.7923 26.5391 32.4896 26.6934C32.1887 26.8467 31.7913 27.0336 31.2632 27.2797L31.4322 27.6422ZM29.6355 28.482L31.4324 27.6421L31.263 27.2798L29.4661 28.1196L29.6355 28.482ZM31.7271 28.1203L29.5526 28.1008L29.549 28.5008L31.7235 28.5203L31.7271 28.1203ZM34.0933 28.0756C34.0756 28.0806 34.0153 28.0897 33.8919 28.0979C33.7753 28.1056 33.6177 28.1119 33.4176 28.1163C33.0178 28.1252 32.4554 28.1268 31.7271 28.1203L31.7235 28.5203C32.4535 28.5268 33.0207 28.5252 33.4265 28.5162C33.6293 28.5117 33.7935 28.5053 33.9185 28.497C34.0365 28.4891 34.1374 28.4787 34.2011 28.4608L34.0933 28.0756ZM34.3834 24.9479C34.3834 26.5462 34.3829 27.3265 34.3305 27.7272C34.3041 27.9293 34.2688 27.99 34.25 28.011C34.2336 28.0294 34.2117 28.042 34.0926 28.0758L34.2017 28.4607C34.3007 28.4326 34.4424 28.3964 34.5487 28.2771C34.6526 28.1604 34.699 27.9944 34.7272 27.779C34.7839 27.3448 34.7834 26.5267 34.7834 24.9479H34.3834ZM34.1257 21.8225C34.2236 21.8574 34.2407 21.8708 34.2554 21.8904C34.2766 21.919 34.3093 21.9908 34.3335 22.1963C34.3813 22.6028 34.3834 23.3804 34.3834 24.9479H34.7834C34.7834 23.3969 34.7821 22.5861 34.7307 22.1495C34.7053 21.9333 34.6643 21.77 34.5763 21.6517C34.4817 21.5245 34.3539 21.4792 34.2598 21.4457L34.1257 21.8225ZM18.3207 30.7829C18.9953 31.1929 18.7027 32.2349 17.9167 32.2349V32.6349C19.1099 32.6349 19.5465 31.0597 18.5284 30.4411L18.3207 30.7829ZM17.9167 30.6818C18.0616 30.6818 18.2268 30.7266 18.3216 30.7835L18.5274 30.4405C18.3618 30.3411 18.1234 30.2818 17.9167 30.2818V30.6818ZM17.1401 31.4583C17.1401 31.0154 17.4738 30.6818 17.9167 30.6818V30.2818C17.2529 30.2818 16.7401 30.7945 16.7401 31.4583H17.1401ZM17.9167 32.2349C17.4738 32.2349 17.1401 31.9013 17.1401 31.4583H16.7401C16.7401 32.1222 17.2529 32.6349 17.9167 32.6349V32.2349ZM8.90446 9.02312C8.72158 9.13742 8.57789 9.28489 8.48137 9.47088C8.3854 9.65582 8.34171 9.86795 8.34171 10.1042H8.74171C8.74171 9.91723 8.77614 9.77128 8.83642 9.65512C8.89615 9.54 8.98683 9.44333 9.11646 9.36232L8.90446 9.02312ZM14.7917 8.86251C12.0718 8.86251 10.6755 8.86412 9.93357 8.88128C9.56457 8.88982 9.34779 8.90231 9.20812 8.92218C9.05546 8.9439 8.98313 8.97635 8.90835 9.02075L9.11257 9.36469C9.14195 9.34724 9.16402 9.33248 9.26446 9.31819C9.37788 9.30206 9.57288 9.28973 9.94282 9.28117C10.6788 9.26415 12.0689 9.26251 14.7917 9.26251V8.86251ZM20.6751 9.02075C20.6003 8.97635 20.528 8.9439 20.3753 8.92218C20.2356 8.90231 20.0188 8.88982 19.6498 8.88128C18.908 8.86412 17.5116 8.86251 14.7917 8.86251V9.26251C17.5145 9.26251 18.9046 9.26415 19.6406 9.28117C20.0105 9.28973 20.2055 9.30206 20.319 9.31819C20.4194 9.33248 20.4415 9.34724 20.4708 9.36469L20.6751 9.02075ZM21.2417 10.1042C21.2417 9.86795 21.198 9.65582 21.102 9.47088C21.0055 9.28489 20.8618 9.13742 20.679 9.02312L20.467 9.36232C20.5966 9.44333 20.6873 9.54 20.747 9.65512C20.8073 9.77128 20.8417 9.91723 20.8417 10.1042H21.2417ZM20.679 11.1852C20.8618 11.0709 21.0055 10.9235 21.102 10.7375C21.198 10.5525 21.2417 10.3404 21.2417 10.1042H20.8417C20.8417 10.2911 20.8073 10.4371 20.747 10.5532C20.6873 10.6684 20.5966 10.765 20.467 10.846L20.679 11.1852ZM14.7917 11.3458C17.5116 11.3458 18.908 11.3442 19.6498 11.3271C20.0188 11.3185 20.2356 11.306 20.3753 11.2862C20.528 11.2645 20.6003 11.232 20.6751 11.1876L20.4708 10.8437C20.4415 10.8611 20.4194 10.8759 20.319 10.8902C20.2055 10.9063 20.0105 10.9186 19.6406 10.9272C18.9046 10.9442 17.5145 10.9458 14.7917 10.9458V11.3458ZM8.90835 11.1876C8.98313 11.232 9.05546 11.2645 9.20812 11.2862C9.34779 11.306 9.56457 11.3185 9.93357 11.3271C10.6755 11.3442 12.0718 11.3458 14.7917 11.3458V10.9458C12.0689 10.9458 10.6788 10.9442 9.94282 10.9272C9.57288 10.9186 9.37788 10.9063 9.26446 10.8902C9.16402 10.8759 9.14195 10.8611 9.11257 10.8437L8.90835 11.1876ZM8.34171 10.1042C8.34171 10.3404 8.3854 10.5525 8.48137 10.7375C8.57789 10.9235 8.72158 11.0709 8.90446 11.1852L9.11646 10.846C8.98683 10.765 8.89615 10.6684 8.83642 10.5532C8.77614 10.4371 8.74171 10.2911 8.74171 10.1042H8.34171ZM8.74171 14.2708C8.74171 14.0839 8.77614 13.9379 8.83642 13.8218C8.89615 13.7067 8.98683 13.61 9.11646 13.529L8.90446 13.1898C8.72158 13.3041 8.57789 13.4516 8.48137 13.6375C8.3854 13.8225 8.34171 14.0346 8.34171 14.2708H8.74171ZM9.11646 15.0127C8.98683 14.9317 8.89615 14.835 8.83642 14.7199C8.77614 14.6037 8.74171 14.4578 8.74171 14.2708H8.34171C8.34171 14.5071 8.3854 14.7192 8.48137 14.9041C8.57789 15.0901 8.72158 15.2376 8.90446 15.3519L9.11646 15.0127ZM12.1875 15.1125C10.7658 15.1125 10.0291 15.1108 9.62093 15.094C9.41598 15.0855 9.30537 15.0735 9.23665 15.0591C9.17753 15.0467 9.15094 15.0331 9.11257 15.0103L8.90835 15.3543C8.97414 15.3933 9.04196 15.427 9.15455 15.4506C9.25754 15.4722 9.39595 15.485 9.60441 15.4936C10.0231 15.5109 10.7708 15.5125 12.1875 15.5125V15.1125ZM15.2625 15.0103C15.2241 15.0331 15.1976 15.0467 15.1384 15.0591C15.0697 15.0735 14.9591 15.0855 14.7541 15.094C14.346 15.1108 13.6093 15.1125 12.1875 15.1125V15.5125C13.6043 15.5125 14.352 15.5109 14.7707 15.4936C14.9791 15.485 15.1175 15.4722 15.2205 15.4506C15.3331 15.427 15.4009 15.3933 15.4667 15.3543L15.2625 15.0103ZM15.6334 14.2708C15.6334 14.4578 15.5989 14.6037 15.5387 14.7199C15.4789 14.835 15.3882 14.9317 15.2586 15.0127L15.4706 15.3519C15.6535 15.2376 15.7972 15.0901 15.8937 14.9041C15.9897 14.7192 16.0334 14.5071 16.0334 14.2708H15.6334ZM15.2586 13.529C15.3882 13.61 15.4789 13.7067 15.5387 13.8218C15.5989 13.9379 15.6334 14.0839 15.6334 14.2708H16.0334C16.0334 14.0346 15.9897 13.8225 15.8937 13.6375C15.7972 13.4516 15.6535 13.3041 15.4706 13.1898L15.2586 13.529ZM12.1875 13.4292C13.6093 13.4292 14.346 13.4309 14.7541 13.4477C14.9591 13.4562 15.0697 13.4682 15.1384 13.4826C15.1976 13.495 15.2241 13.5086 15.2625 13.5314L15.4667 13.1874C15.4009 13.1484 15.3331 13.1147 15.2205 13.0911C15.1175 13.0695 14.9791 13.0567 14.7707 13.0481C14.352 13.0308 13.6043 13.0292 12.1875 13.0292V13.4292ZM9.11257 13.5314C9.15094 13.5086 9.17753 13.495 9.23665 13.4826C9.30537 13.4682 9.41598 13.4562 9.62093 13.4477C10.0291 13.4309 10.7658 13.4292 12.1875 13.4292V13.0292C10.7708 13.0292 10.0231 13.0308 9.60441 13.0481C9.39595 13.0567 9.25754 13.0695 9.15455 13.0911C9.04196 13.1147 8.97414 13.1484 8.90835 13.1874L9.11257 13.5314ZM8.90446 21.0023C8.72158 21.1166 8.57789 21.2641 8.48137 21.45C8.3854 21.635 8.34171 21.8471 8.34171 22.0833H8.74171C8.74171 21.8964 8.77614 21.7504 8.83642 21.6343C8.89615 21.5192 8.98683 21.4225 9.11646 21.3415L8.90446 21.0023ZM10.2592 21.0004C10.0708 20.8873 9.81769 20.84 9.58337 20.84C9.34906 20.84 9.09596 20.8873 8.90756 21.0004L9.11336 21.3434C9.21793 21.2806 9.39126 21.2401 9.58337 21.2401C9.77549 21.2401 9.94882 21.2806 10.0534 21.3434L10.2592 21.0004ZM10.825 22.0833C10.825 21.8471 10.7813 21.635 10.6854 21.45C10.5889 21.2641 10.4452 21.1166 10.2623 21.0023L10.0503 21.3415C10.1799 21.4225 10.2706 21.5192 10.3303 21.6343C10.3906 21.7504 10.425 21.8964 10.425 22.0833H10.825ZM9.58337 23.325C9.949 23.325 10.265 23.2145 10.4898 22.9897C10.7146 22.7649 10.825 22.449 10.825 22.0833H10.425C10.425 22.3688 10.3402 22.5736 10.2069 22.7069C10.0737 22.8402 9.86879 22.925 9.58337 22.925V23.325ZM8.34171 22.0833C8.34171 22.449 8.45218 22.7649 8.67698 22.9897C8.90178 23.2145 9.21775 23.325 9.58337 23.325V22.925C9.29796 22.925 9.0931 22.8402 8.95982 22.7069C8.82655 22.5736 8.74171 22.3688 8.74171 22.0833H8.34171Z" fill="#E1DDDB" mask="url(#path-1-outside-1_44805_110172)"/>
</svg>
