<svg width="24" height="24" viewBox="0 0 24 24" fill="none" xmlns="http://www.w3.org/2000/svg">
<path fill-rule="evenodd" clip-rule="evenodd" d="M12 22C17.5228 22 22 17.5228 22 12C22 6.47715 17.5228 2 12 2C6.47715 2 2 6.47715 2 12C2 17.5228 6.47715 22 12 22ZM6.5 9.5C6.5 7.84315 7.84315 6.5 9.5 6.5H14.5C16.1569 6.5 17.5 7.84315 17.5 9.5V14.5C17.5 16.1569 16.1569 17.5 14.5 17.5H9.5C7.84315 17.5 6.5 16.1569 6.5 14.5V9.5ZM13.1447 14.2109C14.1081 13.726 14.6519 12.678 14.4937 11.6111C14.3322 10.5218 13.4768 9.66643 12.3875 9.50489C11.3206 9.34669 10.2726 9.8905 9.78768 10.8539C9.30279 11.8172 9.49037 12.983 10.253 13.7456C11.0156 14.5082 12.1814 14.6958 13.1447 14.2109ZM12.2406 10.4938C12.8942 10.5908 13.4074 11.104 13.5043 11.7576C13.5992 12.3977 13.273 13.0265 12.6949 13.3175C12.1169 13.6084 11.4175 13.4958 10.9599 13.0383C10.5023 12.5807 10.3898 11.8812 10.6807 11.3032C10.9716 10.7252 11.6005 10.3989 12.2406 10.4938Z" fill="#D7D3D1"/>
</svg>
