<svg width="19" height="20" viewBox="0 0 19 20" fill="none" xmlns="http://www.w3.org/2000/svg">
<g id="learning">
<path id="Union" fill-rule="evenodd" clip-rule="evenodd" d="M9.00041 10C11.7618 10 14.0004 7.76142 14.0004 5C14.0004 2.23858 11.7618 0 9.00041 0C6.23899 0 4.00041 2.23858 4.00041 5C4.00041 7.76142 6.23899 10 9.00041 10ZM14.5033 15.2985C14.5033 16.1364 15.1824 16.8218 16.0266 16.8218C16.1345 16.8218 16.236 16.8155 16.3439 16.7901C16.4264 18.0024 16.6549 19.0243 16.8707 19.805C16.236 19.4559 14.9031 18.8275 13.1069 18.7958C11.1711 18.764 9.73662 19.4368 9.08287 19.7923V19.805L9.07017 19.7986C9.07017 19.7986 9.06383 19.805 9.05748 19.805V19.7923C8.39738 19.4368 6.96294 18.764 5.03343 18.7958C3.2372 18.8275 1.90431 19.4559 1.2696 19.805C1.49175 19.0306 1.70755 18.0151 1.79641 16.8155L1.82261 16.8185L1.82265 16.8185C1.8679 16.8237 1.90699 16.8282 1.95509 16.8282C2.7929 16.8282 3.47839 16.149 3.47839 15.3049C3.47839 14.4671 2.79925 13.7816 1.95509 13.7816C1.87258 13.7816 1.79641 13.7879 1.7139 13.8006C1.606 12.9374 1.44097 12.2012 1.2696 11.5982C2.0376 11.2681 3.31971 10.8365 4.95726 10.8048C6.81696 10.7667 8.26409 11.2491 9.07017 11.5918C9.8826 11.2491 11.3297 10.7667 13.1831 10.8048C14.8206 10.8365 16.1027 11.2681 16.8707 11.5982C16.7057 12.2075 16.528 12.9565 16.4201 13.8324C16.2932 13.7943 16.1599 13.7752 16.0266 13.7752C15.1888 13.7752 14.5033 14.4544 14.5033 15.2985ZM17.2833 15.3049C17.2833 16.006 16.715 16.5743 16.0139 16.5743C15.3128 16.5743 14.7445 16.006 14.7445 15.3049C14.7445 14.6038 15.3128 14.0355 16.0139 14.0355C16.715 14.0355 17.2833 14.6038 17.2833 15.3049ZM1.9618 16.5743C2.66288 16.5743 3.23122 16.006 3.23122 15.3049C3.23122 14.6038 2.66288 14.0355 1.9618 14.0355C1.26072 14.0355 0.692383 14.6038 0.692383 15.3049C0.692383 16.006 1.26072 16.5743 1.9618 16.5743Z" fill="#707070"/>
</g>
</svg>
