<svg width="20" height="20" viewBox="0 0 20 20" fill="none" xmlns="http://www.w3.org/2000/svg">
<path fill-rule="evenodd" clip-rule="evenodd" d="M15.6123 14.7123V10.8083C15.6123 8.71667 14.4957 7.74333 13.007 7.74333C11.8057 7.74333 11.2673 8.40433 10.9673 8.868V7.90333H8.704C8.734 8.54233 8.704 14.7123 8.704 14.7123H10.9673V10.9097C10.9673 10.7067 10.982 10.5033 11.042 10.358C11.2053 9.95133 11.5777 9.53033 12.2027 9.53033C13.022 9.53033 13.3493 10.1547 13.3493 11.0697V14.7127H15.6123V14.7123ZM6.31967 6.974C7.10867 6.974 7.60033 6.45067 7.60033 5.797C7.58567 5.12933 7.10867 4.621 6.33467 4.621C5.56067 4.621 5.05433 5.129 5.05433 5.797C5.05433 6.45067 5.54567 6.974 6.30533 6.974H6.31967ZM10 20C4.47733 20 0 15.5227 0 10C0 4.477 4.47733 0 10 0C15.5227 0 20 4.477 20 10C20 15.5227 15.5227 20 10 20ZM7.45133 14.7123V7.90333H5.18833V14.7123H7.45133Z" fill="#D7D3D1"/>
</svg>
