<svg width="24" height="10" viewBox="0 0 24 10" fill="none" xmlns="http://www.w3.org/2000/svg">
<g clip-path="url(#clip0_46250_546)">
<g opacity="0.88">
<path d="M21.7896 0.842606C21.7896 0.710178 21.8223 0.586277 21.8878 0.470402C21.9533 0.354527 22.0432 0.263232 22.1578 0.196516C22.2724 0.1298 22.396 0.0961914 22.528 0.0961914C22.659 0.0961914 22.7816 0.129298 22.8963 0.195513C23.0109 0.261727 23.1012 0.352521 23.1672 0.468396C23.2332 0.58427 23.2665 0.709174 23.2665 0.842606C23.2665 0.973028 23.2347 1.09542 23.1712 1.20979C23.1077 1.32416 23.0184 1.41596 22.9042 1.48468C22.7896 1.55341 22.664 1.58802 22.528 1.58802C22.3925 1.58802 22.2675 1.55391 22.1528 1.48518C22.0382 1.41646 21.9489 1.32517 21.8853 1.2108C21.8218 1.09643 21.7896 0.97353 21.7896 0.842606ZM21.8928 0.842606C21.8928 0.956976 21.9211 1.06432 21.9781 1.16364C22.0352 1.26347 22.1126 1.34172 22.2114 1.39891C22.3102 1.45609 22.4154 1.48468 22.528 1.48468C22.6422 1.48468 22.7479 1.45609 22.8451 1.3984C22.9429 1.34072 23.0203 1.26297 23.0774 1.16465C23.135 1.06633 23.1633 0.958983 23.1633 0.842606C23.1633 0.727233 23.135 0.620387 23.0779 0.522069C23.0208 0.423249 22.9439 0.344996 22.8466 0.28731C22.7494 0.229623 22.6432 0.200529 22.528 0.200529C22.4139 0.200529 22.3082 0.229121 22.2109 0.286808C22.1131 0.344495 22.0357 0.422246 21.9786 0.520564C21.9216 0.618882 21.8928 0.725728 21.8928 0.842606ZM22.8278 0.66152C22.8278 0.714692 22.8139 0.761343 22.7861 0.801975C22.7583 0.842606 22.7191 0.873205 22.6685 0.892768L22.9022 1.28504H22.737L22.5335 0.9334H22.401V1.28504H22.2556V0.400676H22.5121C22.6208 0.400676 22.7007 0.422246 22.7513 0.465386C22.8025 0.508024 22.8278 0.573736 22.8278 0.66152ZM22.4015 0.811506H22.5077C22.5603 0.811506 22.602 0.797962 22.6337 0.770372C22.6655 0.742783 22.6814 0.708171 22.6814 0.665533C22.6814 0.615873 22.6675 0.580258 22.6392 0.558688C22.6109 0.537118 22.5667 0.526584 22.5057 0.526584H22.4015V0.811506Z" fill="#707070"/>
</g>
<path opacity="0.88" d="M21.0487 1.54054V0.034668H17.3355V1.54054H18.1797L16.6755 3.41611L15.1697 1.54054H16.0169V0.034668H13.2432V1.72062L15.6402 4.70678L13.2432 7.69545V7.99643H14.3861V9.53942H16.0169V7.99643H15.0735L16.6765 5.99696L18.2814 7.99643H17.3355V9.53942H21.0487V7.99643H20.3519L17.7112 4.70678L20.2507 1.54054H21.0487Z" fill="#707070"/>
<path d="M12.2866 0.034668V1.54054H13.0985L13.243 1.72062V0.034668H12.2866Z" fill="#707070"/>
<path d="M13.243 7.99677V7.6958L13.0018 7.99677H12.2866V9.53977H14.3859V7.99677H13.243Z" fill="#707070"/>
<path d="M6.32666 7.28857H7.64479C7.48846 7.67984 7.2691 8.03649 6.99813 8.34449C6.71823 8.03649 6.48994 7.67934 6.32666 7.28857Z" fill="#707070"/>
<path d="M6.99835 3.36865C6.62117 3.7845 6.3368 4.28813 6.17998 4.84543C6.24102 4.96582 6.29114 5.09273 6.32936 5.22516H7.6331C7.6723 5.09474 7.72392 4.96933 7.78645 4.85095C7.63707 4.29114 7.36461 3.7855 6.99835 3.36865ZM6.32985 5.22566C6.38792 5.42531 6.41869 5.63699 6.41869 5.8567C6.41869 6.06337 6.39139 6.26352 6.33978 6.45313H7.62367C7.56957 6.26402 7.54079 6.06387 7.54079 5.8567C7.54079 5.63699 7.57354 5.42531 7.63409 5.22566H6.32985ZM6.32985 5.22566H6.09461C6.05938 5.43082 6.04102 5.64151 6.04102 5.8567C6.04102 6.05986 6.05739 6.259 6.08866 6.45313H6.33978C6.39139 6.26402 6.41869 6.06387 6.41869 5.8567C6.41819 5.63699 6.38742 5.42481 6.32985 5.22566Z" fill="#707070"/>
<path opacity="0.88" d="M13.0994 1.54054H12.2875V0.034668H10.7539V1.54054H11.7445V2.83874C11.1683 2.41988 10.4611 2.17459 9.68445 2.17459C8.62141 2.17459 7.66457 2.63458 6.99856 3.36896C7.36481 3.7858 7.63727 4.29144 7.78715 4.85175C8.14398 4.17155 8.85168 3.70805 9.66708 3.70805C10.8413 3.70805 11.7445 4.67017 11.7445 5.85751V5.86904C11.7386 7.05087 10.8378 8.00646 9.66708 8.00646C8.85218 8.00646 8.14398 7.54296 7.78715 6.86276C7.71916 6.73384 7.66407 6.5964 7.62338 6.45344H6.08887C6.1117 6.59489 6.14247 6.73334 6.18068 6.86828C6.22138 7.01275 6.27051 7.1532 6.32708 7.28914H7.64521C7.48889 7.68041 7.26953 8.03706 6.99856 8.34506C7.66457 9.07893 8.62141 9.53942 9.68445 9.53942C10.4611 9.53942 11.1683 9.29362 11.7445 8.87527C11.9415 8.73181 12.1232 8.56828 12.2875 8.38719V7.99693H13.0026L13.2438 7.69596V1.72062L13.0994 1.54054ZM11.7445 8.87427V9.53942H12.2875V8.38619C12.1237 8.56728 11.9415 8.73131 11.7445 8.87427ZM6.18068 4.84523C6.14544 4.96913 6.11716 5.09604 6.09482 5.22496H6.33006C6.29185 5.09253 6.24172 4.96562 6.18068 4.84523Z" fill="#707070"/>
<path opacity="0.88" d="M7.86728 5.22593C7.84643 5.09902 7.81963 4.97412 7.78688 4.85172C7.72435 4.97011 7.67273 5.09551 7.63353 5.22593C7.57298 5.42558 7.54023 5.63726 7.54023 5.85698C7.54023 6.06364 7.56901 6.26379 7.6231 6.4534H7.87224C7.90202 6.25928 7.9174 6.06013 7.9174 5.85698C7.9179 5.64178 7.90053 5.4306 7.86728 5.22593ZM4.35904 2.17456C2.55952 2.17456 1.0652 3.49283 0.769419 5.22543H2.3084C2.5749 4.34659 3.38434 3.70752 4.34167 3.70752C5.15459 3.70752 5.83698 4.16851 6.18041 4.8457C6.33723 4.2879 6.6216 3.78427 6.99878 3.36892C6.3551 2.63455 5.42208 2.17456 4.35904 2.17456ZM5.90001 7.28911C5.52382 7.72903 4.97195 8.00643 4.34167 8.00643C3.37193 8.00643 2.55406 7.35031 2.29797 6.4534H6.08859C6.05733 6.25928 6.04095 6.06013 6.04095 5.85698C6.04095 5.64178 6.05931 5.4306 6.09455 5.22593H0.769419C0.734183 5.4311 0.71582 5.64178 0.71582 5.85698C0.71582 6.06013 0.732198 6.25928 0.763464 6.4534C1.04535 8.20357 2.5481 9.53939 4.35904 9.53939C5.42208 9.53939 6.3551 9.0794 6.99878 8.34503C6.71888 8.03703 6.49058 7.67987 6.32731 7.28911H5.90001Z" fill="#707070"/>
</g>
<defs>
<clipPath id="clip0_46250_546">
<rect width="24" height="10" fill="white"/>
</clipPath>
</defs>
</svg>
