<svg width="20" height="20" viewBox="0 0 20 20" fill="none" xmlns="http://www.w3.org/2000/svg">
<path fill-rule="evenodd" clip-rule="evenodd" d="M10.9091 0.947266H9.09089C4.07014 0.947266 0 5.00032 0 9.99999V9.99999C0 14.9997 4.07014 19.0527 9.09089 19.0527H10.9091C15.9299 19.0527 20 14.9997 20 9.99999V9.99999C20 5.00032 15.9299 0.947266 10.9091 0.947266ZM16.8183 10.0001C16.8183 13.2499 14.1727 15.8843 10.9093 15.8843H6.40242C5.92923 15.8843 5.54561 15.5023 5.54561 15.0311V15.0311C5.54561 14.5599 5.92923 14.1779 6.40242 14.1779H8.46076C8.91768 14.1779 9.28804 13.8091 9.28804 13.3541V13.3541C9.28804 12.8991 8.91768 12.5303 8.46076 12.5303H4.03878C3.56559 12.5303 3.18197 12.1483 3.18197 11.6771V11.6771C3.18197 11.2059 3.56559 10.8239 4.03878 10.8239H7.27897C7.73584 10.8239 8.10625 10.455 8.10625 10.0001V10.0001C8.10625 9.54511 7.73589 9.17626 7.27897 9.17626H4.03878C3.56559 9.17626 3.18197 8.79425 3.18197 8.32305V8.32305C3.18197 7.85185 3.56559 7.46984 4.03878 7.46984H8.46076C8.91768 7.46984 9.28804 7.10098 9.28804 6.64603V6.64603C9.28804 6.19108 8.91768 5.82223 8.46076 5.82223H6.40242C5.92923 5.82223 5.54561 5.44022 5.54561 4.96902V4.96902C5.54561 4.49782 5.92923 4.1158 6.40242 4.1158H10.9093C14.1727 4.11575 16.8183 6.75025 16.8183 10.0001V10.0001Z" fill="#707070"/>
</svg>
