<?xml version="1.0" encoding="UTF-8"?>
<svg width="253px" height="72px" viewBox="0 0 253 72" version="1.1" xmlns="http://www.w3.org/2000/svg" xmlns:xlink="http://www.w3.org/1999/xlink">
    <title>Moody logo</title>
    <g id="Application-view" stroke="none" stroke-width="1" fill="none" fill-rule="evenodd">
        <g id="Moody-logo" transform="translate(0.000000, -0.000000)" fill="#000000" fill-rule="nonzero">
            <g id="Group" transform="translate(126.500000, 35.849972) scale(-1, 1) rotate(-180.000000) translate(-126.500000, -35.849972) translate(0.000000, 0.000000)">
                <path d="M130.8,70.5088176 C122,67.3088176 116.9,61.1088176 116.2,52.5088176 C115.6,45.3088176 117.4,40.4088176 122.4,35.5088176 C131,26.9088176 142.8,26.8088176 151.7,35.3088176 C160.7,43.7088176 160.8,56.2088176 152.1,64.9088176 C145.7,71.3088176 138.4,73.2088176 130.8,70.5088176 Z M144.6,57.5088176 C147.2,54.9088176 148,53.3088176 148,50.4088176 C148,45.0088176 142.7,39.9088176 137.2,39.9088176 C129.6,39.9088176 124.5,47.3088176 127.3,54.2088176 C129.2,58.7088176 132.5,60.9088176 137.3,60.9088176 C140.4,60.9088176 141.9,60.2088176 144.6,57.5088176 Z" id="Shape"></path>
                <path d="M193,57.8088176 C193,50.9088176 192.9,50.7088176 190.8,51.4088176 C182,54.1088176 174.2,52.8088176 168.4,47.6088176 C162.8,42.8088176 160.7,37.7088176 161.2,30.3088176 C162.5,10.1088176 187.8,3.10881765 199.5,19.7088176 C200.554346,21.2799274 201.388693,22.657766 202.003039,23.8423336 C202.617385,25.0269011 202.983039,25.9628728 203.1,26.6502487 L203.1,64.9088176 L198.1,64.9088176 L193,64.9088176 L193,57.8088176 Z M189.3,39.1088176 C192.8,35.4088176 193.6,31.0088176 191.6,27.1088176 C189.9,23.7088176 185.5,20.9088176 182,20.9088176 C175.8,20.9088176 170.3,27.4088176 171.4,33.5088176 C172.9,41.4088176 183.8,44.8088176 189.3,39.1088176 Z" id="Shape"></path>
                <path d="M10.5,56.4088176 C1.5,51.5088176 2.17277922e-13,47.5088176 2.17277922e-13,27.7088176 L2.17277922e-13,11.9088176 L5.5,11.9088176 L11,11.9088176 L11,27.3088176 C11,44.5088176 11.6,46.3088176 17.7,47.5088176 C20.4,48.0088176 21.4,47.6088176 24,45.1088176 L27,42.1088176 L27,27.0088176 L27,11.9088176 L31.9,11.9088176 L36.9,11.9088176 L37.2,27.5088176 L37.5,43.1088176 L40.3,45.5088176 C41.8,46.8088176 44.2,47.9088176 45.5,47.9088176 C46.8,47.9088176 49.2,46.8088176 50.7,45.5088176 L53.5,43.1088176 L53.8,27.5088176 L54.1,11.9088176 L59.1,11.9088176 L64,11.9088176 L64,27.9088176 C64,45.8088176 63.1,49.1088176 57,54.2088176 C51.6,58.8088176 41,59.1088176 35.1,55.0088176 L32.1,52.8088176 L29,55.1088176 C25,58.0088176 14.9,58.7088176 10.5,56.4088176 Z" id="Path"></path>
                <path d="M85.2,51.8088176 C83.3,51.2088176 79.9,48.8088176 77.5,46.5088176 C68.7,37.6088176 68.9,24.7088176 78.1,16.0088176 C89.3,5.50881765 108.3,10.8088176 112.6,25.7088176 C117.4,42.3088176 102.3,56.7088176 85.2,51.8088176 Z M98.1,40.9088176 C100.6,39.5088176 103,34.7088176 103,31.0088176 C103,25.0088176 95.1,19.5088176 89.2,21.3088176 C81.9,23.7088176 79.5,33.5088176 84.9,39.0088176 C87.2,41.3088176 88.7,41.9088176 92,41.9088176 C94.3,41.9088176 97,41.4088176 98.1,40.9088176 Z" id="Shape"></path>
                <path d="M210.2,42.7088176 C210.5,35.7088176 211.2,32.3088176 212.8,29.2088176 C218.1,19.1088176 230.6,15.4088176 239.6,21.4088176 C241.9,22.9088176 242,22.9088176 242,19.8088176 C242,15.8088176 237.5,11.3088176 232.6,10.4088176 C229.6,9.80881765 227.7,10.2088176 222.7,12.7088176 L216.5,15.8088176 L213.3,12.1088176 C209.6,7.70881765 210.1,6.70881765 217.7,2.90881765 C224,-0.291182354 233.5,-0.891182354 239.5,1.30881765 C244.8,3.40881765 250.5,9.40881765 251.9,14.6088176 C252.5,16.7088176 253,26.0088176 253,35.2088176 L253,52.0088176 L247.8,51.7088176 L242.5,51.4088176 L242,43.1088176 C241.5,35.2088176 241.3,34.6088176 238.2,31.8088176 C233.6,27.6088176 228.9,27.8088176 224.4,32.3088176 C221.1,35.6088176 221,35.9088176 221,43.8088176 L221,51.9088176 L215.4,51.9088176 L209.8,51.9088176 L210.2,42.7088176 Z" id="Path"></path>
            </g>
        </g>
    </g>
</svg>