<svg width="20" height="20" viewBox="0 0 20 20" fill="none" xmlns="http://www.w3.org/2000/svg">
<path d="M11.6071 10.8036C11.6071 11.0167 11.6918 11.2211 11.8425 11.3718C11.9932 11.5225 12.1976 11.6071 12.4107 11.6071C12.6238 11.6071 12.8282 11.5225 12.9789 11.3718C13.1296 11.2211 13.2143 11.0167 13.2143 10.8036C13.2143 10.5905 13.1296 10.3861 12.9789 10.2354C12.8282 10.0847 12.6238 10 12.4107 10C12.1976 10 11.9932 10.0847 11.8425 10.2354C11.6918 10.3861 11.6071 10.5905 11.6071 10.8036ZM14.8214 8.39286C14.6693 8.39276 14.5204 8.43594 14.3919 8.51737C14.2634 8.59879 14.1608 8.71509 14.096 8.85268C14.5156 9.17188 14.8638 9.53795 15.1205 9.94196C15.2941 9.87274 15.4381 9.74517 15.5277 9.58122C15.6173 9.41726 15.647 9.22719 15.6116 9.04372C15.5762 8.86026 15.4779 8.69489 15.3336 8.57608C15.1894 8.45728 15.0083 8.39249 14.8214 8.39286ZM10 0C4.47768 0 0 4.47768 0 10C0 15.5223 4.47768 20 10 20C15.5223 20 20 15.5223 20 10C20 4.47768 15.5223 0 10 0ZM15.4688 10.6674C15.5714 10.9688 15.625 11.2835 15.625 11.6071C15.625 13.8259 13.1071 15.625 10 15.625C6.89286 15.625 4.375 13.8259 4.375 11.6071C4.375 11.2835 4.42857 10.9688 4.53125 10.6674C4.19392 10.5187 3.91797 10.2585 3.74965 9.93052C3.58133 9.60252 3.53087 9.22663 3.60674 8.86586C3.68261 8.50509 3.88019 8.18136 4.16637 7.94895C4.45254 7.71653 4.80991 7.58955 5.17857 7.58929C5.78348 7.58929 6.30804 7.92188 6.58259 8.41518C7.39062 7.97321 8.37277 7.68304 9.44196 7.60938L10.7455 4.68304C10.8415 4.46429 11.0848 4.35268 11.3147 4.41964L13.3594 5.01116C13.4867 4.77476 13.6893 4.5876 13.935 4.47935C14.1807 4.3711 14.4555 4.34794 14.7159 4.41354C14.9762 4.47915 15.2073 4.62976 15.3724 4.84152C15.5374 5.05329 15.6271 5.31408 15.6272 5.58259C15.6272 6.24777 15.0871 6.78795 14.4219 6.78795C13.8973 6.78795 13.4509 6.45089 13.2857 5.98214L11.4509 5.45312L10.4911 7.60714C11.5871 7.67411 12.5938 7.96652 13.4196 8.41741C13.6942 7.92411 14.2188 7.59152 14.8237 7.59152C15.7121 7.59152 16.4308 8.31027 16.4308 9.19866C16.4286 9.85268 16.0335 10.4174 15.4688 10.6674ZM11.6451 12.5201C11.3125 12.7813 10.6562 13.0625 10 13.0625C9.34375 13.0625 8.68527 12.7813 8.35491 12.5201C8.14732 12.3571 7.84821 12.3929 7.68527 12.6004C7.52232 12.808 7.55804 13.1071 7.76562 13.2701C8.33929 13.7254 9.21652 14.0179 10 14.0179C10.7835 14.0179 11.6607 13.7254 12.2366 13.2701C12.4442 13.1071 12.4799 12.8058 12.317 12.6004C12.2384 12.5008 12.1236 12.4364 11.9976 12.4213C11.8717 12.4063 11.7449 12.4418 11.6451 12.5201ZM5.17857 8.39286C4.99172 8.39249 4.81058 8.45728 4.66636 8.57608C4.52213 8.69489 4.42385 8.86026 4.38842 9.04372C4.353 9.22719 4.38266 9.41726 4.47228 9.58122C4.56191 9.74517 4.7059 9.87274 4.87946 9.94196C5.13616 9.53795 5.48438 9.17188 5.90402 8.85268C5.8392 8.71509 5.73656 8.59879 5.6081 8.51737C5.47964 8.43594 5.33066 8.39276 5.17857 8.39286ZM6.78571 10.8036C6.78571 11.0167 6.87038 11.2211 7.02108 11.3718C7.17177 11.5225 7.37617 11.6071 7.58929 11.6071C7.80241 11.6071 8.0068 11.5225 8.1575 11.3718C8.3082 11.2211 8.39286 11.0167 8.39286 10.8036C8.39286 10.5905 8.3082 10.3861 8.1575 10.2354C8.0068 10.0847 7.80241 10 7.58929 10C7.37617 10 7.17177 10.0847 7.02108 10.2354C6.87038 10.3861 6.78571 10.5905 6.78571 10.8036Z" fill="#D7D3D1"/>
</svg>
