<svg
  width="24"
  height="24"
  viewBox="0 0 24 24"
  fill="currentColor"
  xmlns="http://www.w3.org/2000/svg"
>
  <path
    fill-rule="evenodd"
    clip-rule="evenodd"
    d="M22 12C22 17.5228 17.5228 22 12 22C6.47715 22 2 17.5228 2 12C2 6.47715 6.47715 2 12 2C17.5228 2 22 6.47715 22 12ZM16.4958 8.60417C16.9542 8.55833 17.4583 8.42083 17.8708 8.19167C17.55 8.74167 17.1375 9.2 16.5875 9.65833V9.97917C16.5875 13.4167 14.1583 17.3583 9.7125 17.3583C8.3375 17.3583 7.05417 16.9 6 16.1667C6.22917 16.2125 6.4125 16.2125 6.59583 16.2125C7.69583 16.2125 8.75 15.8 9.575 15.1125C8.52083 15.1125 7.65 14.3792 7.32917 13.325C7.46667 13.3708 7.65 13.3708 7.7875 13.3708C8.01667 13.3708 8.24583 13.325 8.42917 13.2792C7.32917 13.0042 6.50417 11.95 6.50417 10.7125V10.6667C6.825 10.85 7.19167 10.9875 7.60417 10.9875C6.9625 10.5292 6.55 9.75 6.55 8.83333C6.55 8.32917 6.64167 7.87083 6.87083 7.50417C8.0625 9.0625 9.85 10.1167 11.8667 10.2083C11.8208 10.025 11.8208 9.79583 11.8208 9.6125C11.8208 8.14583 12.9208 7 14.25 7C14.9375 7 15.5333 7.32083 15.9917 7.825C16.5875 7.6875 17.0917 7.45833 17.55 7.18333C17.3667 7.77917 17 8.28333 16.4958 8.60417Z"
    fill="currentColor"
  />
</svg>
