<svg width="251" height="150" viewBox="0 0 251 150" fill="none" xmlns="http://www.w3.org/2000/svg">
<g filter="url(#filter0_dd_47402_208429)">
<rect x="9" y="6.71582" width="233" height="132.569" rx="8.03448" fill="url(#paint0_linear_47402_208429)"/>
<path opacity="0.499035" fill-rule="evenodd" clip-rule="evenodd" d="M82.209 99.1216H145.481C145.839 99.1216 146.188 99.083 146.524 99.0096C146.859 99.083 147.208 99.1216 147.566 99.1216H183.722C186.41 99.1216 188.589 96.9426 188.589 94.2546C188.589 91.5666 186.41 89.3875 183.722 89.3875H179.55C176.862 89.3875 174.683 87.2085 174.683 84.5205C174.683 81.8325 176.862 79.6534 179.55 79.6534H192.76C195.448 79.6534 197.627 77.4744 197.627 74.7864C197.627 72.0984 195.448 69.9193 192.76 69.9193H177.464C180.152 69.9193 182.331 67.7403 182.331 65.0523C182.331 62.3643 180.152 60.1853 177.464 60.1853H132.965C135.653 60.1853 137.832 58.0062 137.832 55.3182C137.832 52.6302 135.653 50.4512 132.965 50.4512H93.3337C90.6457 50.4512 88.4666 52.6302 88.4666 55.3182C88.4666 58.0062 90.6457 60.1853 93.3337 60.1853H65.522C62.834 60.1853 60.655 62.3643 60.655 65.0523C60.655 67.7403 62.834 69.9193 65.522 69.9193H82.9043C85.5923 69.9193 87.7713 72.0984 87.7713 74.7864C87.7713 77.4744 85.5923 79.6534 82.9043 79.6534H55.0926C52.4046 79.6534 50.2256 81.8325 50.2256 84.5205C50.2256 87.2085 52.4046 89.3875 55.0926 89.3875H82.209C79.521 89.3875 77.342 91.5666 77.342 94.2546C77.342 96.9426 79.521 99.1216 82.209 99.1216ZM195.543 99.1219C198.231 99.1219 200.41 96.9428 200.41 94.2549C200.41 91.5669 198.231 89.3878 195.543 89.3878C192.855 89.3878 190.676 91.5669 190.676 94.2549C190.676 96.9428 192.855 99.1219 195.543 99.1219Z" fill="#EAE6E5"/>
<path fill-rule="evenodd" clip-rule="evenodd" d="M98.4001 102.683L95.5702 103.08C94.0491 103.294 92.6428 102.234 92.429 100.713L84.6877 45.6313C84.474 44.1103 85.5337 42.7039 87.0548 42.4902L141.448 34.8457C142.969 34.6319 144.376 35.6917 144.589 37.2127C144.589 37.2127 145.084 40.7346 145.255 41.9461" fill="white"/>
<path fill-rule="evenodd" clip-rule="evenodd" d="M100.156 99.6158L97.5859 99.981C96.2047 100.177 94.9295 99.217 94.7376 97.836L87.788 47.8273C87.5961 46.4464 88.5602 45.1677 89.9414 44.9714L139.333 37.9512C140.714 37.7549 141.99 38.7153 142.181 40.0962L142.779 44.3936C142.811 44.6262 144.945 60.0613 149.179 90.6989C149.392 92.2374 148.331 93.6588 146.81 93.8739C146.794 93.8762 146.777 93.8784 146.761 93.8804L100.156 99.6158Z" fill="#EAE6E5"/>
<path d="M98.4001 102.683L95.5702 103.08C94.0491 103.294 92.6428 102.234 92.429 100.713L84.6877 45.6313C84.474 44.1103 85.5337 42.7039 87.0548 42.4902L141.448 34.8457C142.969 34.6319 144.376 35.6917 144.589 37.2127C144.589 37.2127 145.084 40.7346 145.255 41.9461" stroke="#E1DDDB" stroke-width="1.73823" stroke-linecap="round"/>
<path d="M145.834 45.1523L146.182 47.3219" stroke="#D7D3D1" stroke-width="1.73823" stroke-linecap="round"/>
<path d="M107.81 48.0091C107.92 46.9589 108.861 46.197 109.911 46.3074L164.539 52.049C165.589 52.1593 166.351 53.1002 166.24 54.1504L160.426 109.469C160.316 110.519 159.375 111.281 158.325 111.171L103.697 105.429C102.647 105.319 101.885 104.378 101.996 103.328L107.81 48.0091Z" fill="white" stroke="#E1DDDB" stroke-width="1.73823"/>
<path fill-rule="evenodd" clip-rule="evenodd" d="M112.59 54.1037C112.71 52.9581 113.736 52.1269 114.882 52.2473L158.445 56.826C159.591 56.9464 160.422 57.9728 160.302 59.1185L156.45 95.7671C156.33 96.9128 155.303 97.7439 154.158 97.6235L110.594 93.0448C109.448 92.9244 108.617 91.898 108.738 90.7523L112.59 54.1037Z" fill="white"/>
<path fill-rule="evenodd" clip-rule="evenodd" d="M114.709 82.3499L121.521 77.7554C122.657 76.9893 124.182 77.1645 125.114 78.1683L130.102 83.5381C130.351 83.8061 130.765 83.8354 131.049 83.6051L141.715 74.9629C142.999 73.9218 144.903 74.2251 145.801 75.6137L152.741 86.3471L153.737 88.0102L153.26 93.6593C153.227 94.0491 152.879 94.335 152.49 94.2918L112.885 89.8914C112.508 89.8496 112.234 89.5139 112.269 89.1366L112.794 83.4362L114.709 82.3499Z" fill="#EAE6E5"/>
<path d="M113.454 54.1946C113.524 53.5263 114.123 53.0414 114.791 53.1117L158.355 57.6904C159.023 57.7606 159.508 58.3593 159.438 59.0277L155.586 95.6763C155.515 96.3446 154.917 96.8294 154.248 96.7592L110.685 92.1805C110.017 92.1102 109.532 91.5115 109.602 90.8432L113.454 54.1946Z" stroke="#E1DDDB" stroke-width="1.73823"/>
<circle cx="123.252" cy="65.7119" r="4.17175" transform="rotate(6 123.252 65.7119)" fill="#EAE6E5" stroke="#E1DDDB" stroke-width="1.73823"/>
<path d="M113.309 83.4247C116.046 81.5347 121.519 77.7546 121.519 77.7546C122.655 76.9885 124.18 77.1637 125.112 78.1675L130.1 83.5373C130.349 83.8053 130.763 83.8345 131.047 83.6043L141.713 74.9621C142.906 73.9951 144.658 74.1786 145.625 75.372C145.687 75.4491 145.745 75.5295 145.799 75.6129C145.799 75.6129 152.035 85.5074 153.492 87.8194" stroke="#E1DDDB" stroke-width="1.73823" stroke-linecap="round"/>
</g>
<defs>
<filter id="filter0_dd_47402_208429" x="0.965517" y="0.689958" width="249.069" height="148.638" filterUnits="userSpaceOnUse" color-interpolation-filters="sRGB">
<feFlood flood-opacity="0" result="BackgroundImageFix"/>
<feColorMatrix in="SourceAlpha" type="matrix" values="0 0 0 0 0 0 0 0 0 0 0 0 0 0 0 0 0 0 127 0" result="hardAlpha"/>
<feOffset dy="2.00862"/>
<feGaussianBlur stdDeviation="4.01724"/>
<feColorMatrix type="matrix" values="0 0 0 0 0 0 0 0 0 0 0 0 0 0 0 0 0 0 0.15 0"/>
<feBlend mode="normal" in2="BackgroundImageFix" result="effect1_dropShadow_47402_208429"/>
<feColorMatrix in="SourceAlpha" type="matrix" values="0 0 0 0 0 0 0 0 0 0 0 0 0 0 0 0 0 0 127 0" result="hardAlpha"/>
<feOffset dy="2.00862"/>
<feGaussianBlur stdDeviation="2.00862"/>
<feColorMatrix type="matrix" values="0 0 0 0 0 0 0 0 0 0 0 0 0 0 0 0 0 0 0.15 0"/>
<feBlend mode="normal" in2="effect1_dropShadow_47402_208429" result="effect2_dropShadow_47402_208429"/>
<feBlend mode="normal" in="SourceGraphic" in2="effect2_dropShadow_47402_208429" result="shape"/>
</filter>
<linearGradient id="paint0_linear_47402_208429" x1="242" y1="73.0003" x2="9" y2="73.0003" gradientUnits="userSpaceOnUse">
<stop stop-color="#FBFAF9"/>
<stop offset="1" stop-color="white"/>
</linearGradient>
</defs>
</svg>
