<svg width="72" height="72" viewBox="0 0 72 72" fill="none" xmlns="http://www.w3.org/2000/svg">
<path fill-rule="evenodd" clip-rule="evenodd" d="M3 9C3 7.34315 4.34315 6 6 6H24C27.9782 6 31.7936 7.58035 34.6066 10.3934C37.4196 13.2064 39 17.0218 39 21V63C39 64.6569 37.6569 66 36 66C34.3431 66 33 64.6569 33 63C33 61.4087 32.3679 59.8826 31.2426 58.7574C30.1174 57.6321 28.5913 57 27 57H6C4.34315 57 3 55.6569 3 54V9ZM33 52.6077V21C33 18.6131 32.0518 16.3239 30.364 14.636C28.6761 12.9482 26.3869 12 24 12H9V51H27C29.1247 51 31.1913 51.5635 33 52.6077Z" fill="#D7D3D1"/>
<path fill-rule="evenodd" clip-rule="evenodd" d="M37.3934 10.3934C40.2064 7.58035 44.0218 6 48 6H66C67.6569 6 69 7.34315 69 9V54C69 55.6569 67.6569 57 66 57H45C43.4087 57 41.8826 57.6321 40.7574 58.7574C39.6321 59.8826 39 61.4087 39 63C39 64.6569 37.6569 66 36 66C34.3431 66 33 64.6569 33 63V21C33 17.0218 34.5804 13.2064 37.3934 10.3934ZM39 52.6077C40.8087 51.5635 42.8753 51 45 51H63V12H48C45.6131 12 43.3239 12.9482 41.636 14.636C39.9482 16.3239 39 18.6131 39 21V52.6077Z" fill="#D7D3D1"/>
</svg>
