<svg width="16" height="16" viewBox="0 0 16 16" fill="none" xmlns="http://www.w3.org/2000/svg">
<path fill-rule="evenodd" clip-rule="evenodd" d="M7.85965 4.11049L0 2.14558L7.85965 0.180664L15.7235 2.14558H15.7193L7.85965 4.11049ZM7.72298 4.65478C7.76767 4.66605 7.81358 4.6718 7.85968 4.67191C7.90559 4.67185 7.95132 4.6661 7.99582 4.65478L12.9123 3.42643V6.47963C12.9134 6.57872 12.885 6.6759 12.8308 6.75886C12.7766 6.84181 12.6989 6.9068 12.6077 6.94559C11.9983 7.1884 10.6802 7.47892 7.85968 7.47892C5.06922 7.47892 3.75049 7.19345 3.13575 6.95429C3.03924 6.91775 2.95612 6.85273 2.89741 6.76785C2.83871 6.68298 2.80719 6.58226 2.80705 6.47906V3.42643L7.72298 4.65478ZM14.5965 3.00461V5.59212C14.4894 5.65391 14.4058 5.74929 14.3585 5.86347C14.3112 5.97764 14.3029 6.10424 14.3349 6.22361C14.3669 6.34298 14.4374 6.44847 14.5354 6.5237C14.6334 6.59893 14.7536 6.63971 14.8772 6.63971C15.0007 6.63971 15.1209 6.59893 15.2189 6.5237C15.317 6.44847 15.3874 6.34298 15.4194 6.22361C15.4514 6.10424 15.4431 5.97764 15.3958 5.86347C15.3485 5.74929 15.2649 5.65391 15.1579 5.59212V2.86426L14.5965 3.00461ZM1.97445 9.72445H4.2181C4.2323 9.08958 4.30085 8.45709 4.42301 7.83393C3.91439 7.7696 3.41431 7.64997 2.93164 7.47715C2.82002 7.43319 2.71645 7.37107 2.62511 7.29329C2.2352 8.04718 2.01322 8.87659 1.97445 9.72445ZM8.14032 15.8718C8.92039 15.7315 9.62495 15.0042 10.1333 13.935H8.14032V15.8718ZM11.5049 10.2859H13.7401C13.6898 11.3938 13.3257 12.4646 12.6903 13.3736H10.989C11.3153 12.3762 11.4892 11.3352 11.5049 10.2859ZM13.0978 7.29663C13.0137 7.36726 12.919 7.4241 12.8171 7.46505C12.3263 7.64492 11.8166 7.76847 11.298 7.83333C11.4193 8.45687 11.4873 9.08961 11.5012 9.7247H13.7448C13.706 8.87827 13.4854 8.05013 13.0978 7.29663ZM8.14032 8.03845C9.00825 8.03808 9.87561 7.99377 10.7391 7.90568C10.8583 8.50506 10.9255 9.11366 10.9398 9.72463H8.14032V8.03845ZM8.14032 13.3736H10.3725C10.7288 12.3822 10.9204 11.3392 10.9398 10.2859H8.14032V13.3736ZM4.77948 10.2859H7.57892V13.3736H5.34678C4.99046 12.3822 4.79882 11.3392 4.77948 10.2859ZM6.01347 15.5995C5.55851 15.1151 5.19689 14.5507 4.94681 13.935H3.47845C4.16406 14.7012 5.03791 15.2749 6.01347 15.5995ZM3.02909 13.3736C2.39368 12.4646 2.0296 11.3938 1.97927 10.2859H4.2145C4.23015 11.3352 4.40408 12.3762 4.73043 13.3736H3.02909ZM7.57902 15.8718V13.935H5.58604C6.09439 15.0042 6.79895 15.7315 7.57902 15.8718ZM4.98074 7.90568C5.84401 7.99366 6.71118 8.03798 7.57892 8.03845V9.72463H4.77948C4.79351 9.11361 4.86085 8.50498 4.98074 7.90568ZM12.2409 13.935H10.7736C10.5235 14.5507 10.1619 15.1151 9.70697 15.5995C10.6821 15.2748 11.5556 14.701 12.2409 13.935Z" fill="#131628"/>
</svg>
