<svg width="78" height="41" viewBox="0 0 78 41" fill="none" xmlns="http://www.w3.org/2000/svg">
<path opacity="0.499035" fill-rule="evenodd" clip-rule="evenodd" d="M17.4492 33.0045H48.9492C49.1274 33.0045 49.3012 32.9852 49.4684 32.9487C49.6357 32.9852 49.8094 33.0045 49.9877 33.0045H67.9877C69.3259 33.0045 70.4107 31.9196 70.4107 30.5814C70.4107 29.2431 69.3259 28.1583 67.9877 28.1583H65.9107C64.5725 28.1583 63.4877 27.0734 63.4877 25.7352C63.4877 24.397 64.5725 23.3121 65.9107 23.3121H72.4877C73.8259 23.3121 74.9107 22.2273 74.9107 20.8891C74.9107 19.5508 73.8259 18.466 72.4877 18.466H64.8723C66.2105 18.466 67.2954 17.3811 67.2954 16.0429C67.2954 14.7047 66.2105 13.6198 64.8723 13.6198H42.7184C44.0567 13.6198 45.1415 12.535 45.1415 11.1968C45.1415 9.85853 44.0567 8.77368 42.7184 8.77368H22.9877C21.6494 8.77368 20.5646 9.85853 20.5646 11.1968C20.5646 12.535 21.6494 13.6198 22.9877 13.6198H9.14151C7.80328 13.6198 6.71843 14.7047 6.71843 16.0429C6.71843 17.3811 7.80328 18.466 9.14151 18.466H17.7954C19.1336 18.466 20.2184 19.5508 20.2184 20.8891C20.2184 22.2273 19.1336 23.3121 17.7954 23.3121H3.9492C2.61097 23.3121 1.52612 24.397 1.52612 25.7352C1.52612 27.0734 2.61097 28.1583 3.9492 28.1583H17.4492C16.111 28.1583 15.0261 29.2431 15.0261 30.5814C15.0261 31.9196 16.111 33.0045 17.4492 33.0045ZM73.8723 33.0045C75.2105 33.0045 76.2954 31.9196 76.2954 30.5814C76.2954 29.2432 75.2105 28.1583 73.8723 28.1583C72.5341 28.1583 71.4492 29.2432 71.4492 30.5814C71.4492 31.9196 72.5341 33.0045 73.8723 33.0045Z" fill="#EAE6E5"/>
<g clip-path="url(#clip0_47318_190170)">
<path fill-rule="evenodd" clip-rule="evenodd" d="M65.6914 1.5192C65.7903 1.95503 68.0501 12.2617 63.4997 21.0656C63.4949 21.0794 63.4911 21.0933 63.4874 21.1073C63.4803 21.1339 63.4732 21.1605 63.4586 21.1855C63.4445 21.2096 63.4269 21.23 63.4093 21.2505C63.4036 21.2571 63.3979 21.2637 63.3923 21.2705L63.3817 21.2904C63.2825 21.4774 63.1834 21.6643 63.0791 21.8457C60.0641 27.1373 55.1178 30.4892 51.4606 32.3808L43.4782 40.7923C43.3486 40.9286 43.1725 40.9999 42.9941 40.9999C42.8812 40.9999 42.7672 40.9713 42.6637 40.912C42.3971 40.76 42.2692 40.4453 42.3535 40.15L44.3958 32.9999H32.3278C31.9596 32.9999 31.6611 32.7014 31.6611 32.3333V24.3333C31.6611 19.5543 35.5488 15.6666 40.3278 15.6666C42.6471 15.6666 44.8245 16.567 46.4593 18.2018C46.5079 18.2504 46.5526 18.3017 46.5973 18.353C46.6263 18.3863 46.6553 18.4196 46.6854 18.4521C47.2097 16.6644 47.8977 14.9959 48.7552 13.4899C49.6461 11.9267 50.7708 10.4274 52.0986 9.03351C52.2627 8.86131 52.5661 8.77212 52.7982 8.82583L52.7982 8.82584C53.0684 8.89094 53.3877 8.96789 54.1217 10.9918C54.4863 8.82941 55.1953 6.19204 56.5413 5.25878C60.7832 2.31444 64.679 1.08137 64.8427 1.03027C65.0198 0.974927 65.2122 0.99576 65.3743 1.08918C65.5354 1.18196 65.6503 1.33788 65.6914 1.5192ZM32.9945 24.3333V31.6666H44.7767L45.5563 28.9371C45.5179 28.1746 45.505 27.4217 45.5132 26.6777C45.5134 26.6623 45.5133 26.6467 45.5132 26.6311C45.513 26.615 45.5129 26.5989 45.5131 26.5829C45.523 25.8634 45.5573 25.1543 45.6107 24.4541C45.6126 24.4294 45.6141 24.4044 45.6156 24.3795C45.6173 24.351 45.6191 24.3225 45.6214 24.2941C45.6766 23.6131 45.7551 22.9432 45.8516 22.2826C45.856 22.2524 45.8601 22.2221 45.8642 22.1918C45.8693 22.1535 45.8745 22.1151 45.8803 22.0771C45.9789 21.4324 46.0996 20.7994 46.2376 20.1761C46.2428 20.1523 46.247 20.1279 46.2512 20.1034C46.2555 20.0777 46.2599 20.052 46.2656 20.027C46.0449 19.7177 45.7936 19.4215 45.5166 19.1445C44.1334 17.7617 42.291 17 40.3278 17C36.2842 17 32.9945 20.2897 32.9945 24.3333ZM61.0469 22.5611C61.0481 22.5623 61.0494 22.5635 61.0509 22.5645C61.355 22.1186 61.6495 21.6619 61.9222 21.1832C61.9318 21.1665 61.9408 21.1495 61.9499 21.1325C61.9575 21.118 61.9652 21.1036 61.9733 21.0893L61.2298 20.6546C60.9117 20.4687 60.8047 20.0605 60.9905 19.7425C61.1764 19.4248 61.5839 19.3177 61.9026 19.5035L62.5784 19.8986C65.8982 12.9638 64.9387 4.98579 64.5296 2.5537C63.2317 3.04003 60.3304 4.25194 57.3014 6.35415C55.9769 7.27244 55.2441 11.6331 55.0934 14.166C55.0742 14.4896 54.8255 14.7523 54.5036 14.789C54.181 14.8258 53.8802 14.626 53.7887 14.3151C53.3864 12.9508 52.8659 11.389 52.5159 10.5485C51.499 11.692 50.626 12.9 49.9137 14.15C48.915 15.9036 48.1465 17.8883 47.6295 20.0485C47.1437 22.0887 46.8792 24.3357 46.8474 26.6484C46.8368 27.4193 46.852 28.1975 46.8935 28.9778C46.8974 29.0514 46.8893 29.1253 46.8691 29.1962L46.7087 29.758L45.9225 32.5162C45.9221 32.5178 45.9213 32.5192 45.9205 32.5206C45.9197 32.5219 45.9189 32.5233 45.9185 32.5248L44.3828 37.9016L50.5709 31.3808C50.6227 31.3264 50.6836 31.2809 50.7503 31.2467C52.2582 30.4728 54.0027 29.4366 55.7306 28.1066L53.3759 26.7301C53.0582 26.5442 52.9511 26.136 53.137 25.818C53.3226 25.5 53.7304 25.3925 54.0491 25.5791L56.6829 27.1188C56.7232 27.1423 56.754 27.1743 56.7848 27.2064C56.7928 27.2147 56.8008 27.223 56.8089 27.2311C57.2722 26.8368 57.73 26.4214 58.1781 25.9819L56.2135 24.8333C55.8958 24.6474 55.7887 24.2392 55.9746 23.9212C56.1601 23.6035 56.5687 23.4964 56.8867 23.6823L59.1283 24.9929C59.5198 24.5631 59.9 24.1154 60.2649 23.6464L59.0507 22.9365C58.733 22.7506 58.6259 22.3424 58.8118 22.0244C58.9977 21.707 59.4052 21.5992 59.7239 21.7854L61.0407 22.5553C61.0432 22.5568 61.045 22.559 61.0469 22.5611ZM46.3277 6.99998C46.3277 10.3082 43.636 13 40.3278 13C37.0195 13 34.3278 10.3082 34.3278 6.99998C34.3278 3.69172 37.0195 0.999992 40.3278 0.999992C43.636 0.999992 46.3277 3.69172 46.3277 6.99998ZM44.9944 6.99998C44.9944 4.42675 42.901 2.33332 40.3278 2.33332C37.7545 2.33332 35.6611 4.42675 35.6611 6.99998C35.6611 9.57322 37.7545 11.6666 40.3278 11.6666C42.901 11.6666 44.9944 9.57322 44.9944 6.99998Z" fill="#E1DDDB"/>
<path d="M33 21.5L32.5 31.5L44.5 32L45.5 29L46.5 21L45.5 18.5L39 16.5L36.5 18L33 21.5Z" fill="#E1DDDB" stroke="#E1DDDB"/>
<circle cx="40" cy="7" r="5" fill="#E1DDDB"/>
</g>
<defs>
<clipPath id="clip0_47318_190170">
<rect width="36" height="40" fill="white" transform="translate(31 0.999939)"/>
</clipPath>
</defs>
</svg>
