<svg width="576" height="128" viewBox="0 0 576 128" fill="none" xmlns="http://www.w3.org/2000/svg">
<g clip-path="url(#clip0_48059_219879)">
<path d="M63.0631 40.6078C62.7558 40.6071 62.4498 40.5688 62.1518 40.4937L29.3789 32.3047V52.6556C29.3799 53.3436 29.59 54.015 29.9813 54.5808C30.3727 55.1467 30.9268 55.5801 31.5703 55.8238C35.6685 57.4181 44.4601 59.3213 63.0631 59.3213C81.8664 59.3213 90.6542 57.3845 94.7169 55.7657C95.3249 55.5071 95.8424 55.0739 96.2038 54.5209C96.5653 53.9678 96.7545 53.3199 96.7473 52.6593V32.3047L63.9707 40.4937C63.6741 40.5691 63.3692 40.6075 63.0631 40.6078Z" fill="#131628"/>
<path d="M10.666 23.7654L63.0637 36.8648L115.461 23.7654C115.48 23.7654 115.489 23.7654 115.489 23.7654L63.0637 10.666L10.666 23.7654Z" fill="#131628"/>
<path d="M107.975 29.4923V46.7424C107.261 47.1543 106.704 47.7902 106.388 48.5514C106.073 49.3125 106.018 50.1565 106.231 50.9523C106.444 51.7481 106.914 52.4514 107.568 52.9529C108.221 53.4545 109.022 53.7263 109.846 53.7263C110.67 53.7263 111.471 53.4545 112.125 52.9529C112.778 52.4514 113.248 51.7481 113.461 50.9523C113.675 50.1565 113.619 49.3125 113.304 48.5514C112.989 47.7902 112.431 47.1543 111.718 46.7424V28.5566L107.975 29.4923Z" fill="#131628"/>
<path fill-rule="evenodd" clip-rule="evenodd" d="M38.7858 74.2917H23.8281C24.0866 68.6393 25.5665 63.1099 28.1659 58.084C28.7748 58.6025 29.4653 59.0166 30.2094 59.3097C33.4272 60.4618 36.7611 61.2593 40.1519 61.6882C39.3375 65.8427 38.8804 70.0592 38.7858 74.2917ZM78.2201 102.361C74.8311 109.489 70.1341 114.338 64.9336 115.274V102.361H78.2201ZM102.265 78.0352H87.3634C87.259 85.0307 86.0994 91.9705 83.9238 98.62H95.2661C99.5022 92.56 101.929 85.4213 102.265 78.0352ZM96.1121 59.2283C96.7913 58.9553 97.4229 58.5763 97.9834 58.1055C100.567 63.1288 102.038 68.6497 102.297 74.2926H87.3392C87.2469 70.0587 86.7936 65.8404 85.9844 61.6835C89.4423 61.2511 92.84 60.4274 96.1121 59.2283ZM82.2585 62.166C76.5022 62.7533 70.7198 63.0487 64.9336 63.0512V74.2923H83.5965C83.5014 70.2192 83.0538 66.1619 82.2585 62.166ZM79.8145 98.62H64.9336V78.0352H83.5965C83.4676 85.0572 82.19 92.0107 79.8145 98.62ZM61.1903 78.0352H42.5273C42.6563 85.0572 43.9339 92.0107 46.3093 98.62H61.1903V78.0352ZM43.6445 102.361C45.3117 106.466 47.7225 110.229 50.7556 113.458C44.2518 111.294 38.4262 107.469 33.8555 102.361H43.6445ZM23.8594 78.0352C24.1949 85.4213 26.6221 92.56 30.8582 98.62H42.2004C40.0248 91.9705 38.8652 85.0307 38.7609 78.0352H23.8594ZM61.1908 102.361V115.274C55.9904 114.338 51.2933 109.489 47.9043 102.361H61.1908ZM61.1903 63.0512C55.4053 63.048 49.6242 62.7526 43.8691 62.166C43.0698 66.1614 42.6209 70.2189 42.5273 74.2923H61.1903V63.0512ZM82.4881 102.361H92.2696C87.701 107.468 81.878 111.293 75.377 113.458C78.41 110.229 80.8208 106.466 82.4881 102.361Z" fill="#FF8057"/>
</g>
<path d="M156.551 95.332V42.9684H167.622V86.2042H190.071V95.332H156.551ZM243.483 69.1502C243.483 74.8604 242.401 79.7184 240.236 83.7241C238.088 87.7298 235.156 90.7894 231.44 92.9031C227.741 94.9996 223.582 96.0479 218.963 96.0479C214.31 96.0479 210.134 94.9911 206.435 92.8775C202.736 90.7638 199.813 87.7042 197.665 83.6985C195.517 79.6928 194.443 74.8434 194.443 69.1502C194.443 63.44 195.517 58.582 197.665 54.5764C199.813 50.5707 202.736 47.5195 206.435 45.4229C210.134 43.3093 214.31 42.2525 218.963 42.2525C223.582 42.2525 227.741 43.3093 231.44 45.4229C235.156 47.5195 238.088 50.5707 240.236 54.5764C242.401 58.582 243.483 63.44 243.483 69.1502ZM232.259 69.1502C232.259 65.4513 231.705 62.332 230.597 59.7923C229.506 57.2525 227.963 55.3264 225.969 54.0139C223.974 52.7014 221.639 52.0451 218.963 52.0451C216.287 52.0451 213.952 52.7014 211.957 54.0139C209.963 55.3264 208.412 57.2525 207.304 59.7923C206.213 62.332 205.668 65.4513 205.668 69.1502C205.668 72.8491 206.213 75.9684 207.304 78.5082C208.412 81.0479 209.963 82.9741 211.957 84.2866C213.952 85.5991 216.287 86.2553 218.963 86.2553C221.639 86.2553 223.974 85.5991 225.969 84.2866C227.963 82.9741 229.506 81.0479 230.597 78.5082C231.705 75.9684 232.259 72.8491 232.259 69.1502ZM286.406 59.8945C286.048 58.6502 285.545 57.5508 284.897 56.5962C284.249 55.6246 283.457 54.8065 282.519 54.1417C281.599 53.4599 280.542 52.94 279.349 52.582C278.173 52.2241 276.869 52.0451 275.437 52.0451C272.761 52.0451 270.408 52.7099 268.38 54.0394C266.369 55.369 264.8 57.3036 263.675 59.8434C262.55 62.3661 261.988 65.4513 261.988 69.0991C261.988 72.7468 262.542 75.8491 263.65 78.4059C264.758 80.9627 266.326 82.9144 268.354 84.261C270.383 85.5906 272.778 86.2553 275.539 86.2553C278.045 86.2553 280.184 85.8121 281.957 84.9258C283.746 84.0224 285.11 82.7525 286.048 81.1161C287.002 79.4798 287.479 77.5451 287.479 75.3121L289.729 75.6445H276.229V67.3093H298.141V73.9059C298.141 78.5082 297.17 82.4627 295.227 85.7695C293.283 89.0593 290.607 91.5991 287.198 93.3888C283.789 95.1616 279.886 96.0479 275.488 96.0479C270.579 96.0479 266.266 94.9656 262.55 92.8008C258.835 90.619 255.937 87.5252 253.857 83.5195C251.795 79.4968 250.763 74.7241 250.763 69.2013C250.763 64.957 251.377 61.1729 252.604 57.8491C253.849 54.5082 255.587 51.6786 257.82 49.3604C260.053 47.0423 262.653 45.2781 265.619 44.0678C268.585 42.8576 271.798 42.2525 275.258 42.2525C278.224 42.2525 280.985 42.6871 283.542 43.5565C286.099 44.4087 288.366 45.619 290.343 47.1871C292.337 48.7553 293.965 50.6218 295.227 52.7866C296.488 54.9343 297.298 57.3036 297.656 59.8945H286.406ZM354.577 69.1502C354.577 74.8604 353.494 79.7184 351.33 83.7241C349.182 87.7298 346.25 90.7894 342.534 92.9031C338.835 94.9996 334.676 96.0479 330.057 96.0479C325.403 96.0479 321.227 94.9911 317.528 92.8775C313.83 90.7638 310.906 87.7042 308.759 83.6985C306.611 79.6928 305.537 74.8434 305.537 69.1502C305.537 63.44 306.611 58.582 308.759 54.5764C310.906 50.5707 313.83 47.5195 317.528 45.4229C321.227 43.3093 325.403 42.2525 330.057 42.2525C334.676 42.2525 338.835 43.3093 342.534 45.4229C346.25 47.5195 349.182 50.5707 351.33 54.5764C353.494 58.582 354.577 63.44 354.577 69.1502ZM343.352 69.1502C343.352 65.4513 342.798 62.332 341.69 59.7923C340.599 57.2525 339.057 55.3264 337.062 54.0139C335.068 52.7014 332.733 52.0451 330.057 52.0451C327.381 52.0451 325.045 52.7014 323.051 54.0139C321.057 55.3264 319.506 57.2525 318.398 59.7923C317.307 62.332 316.761 65.4513 316.761 69.1502C316.761 72.8491 317.307 75.9684 318.398 78.5082C319.506 81.0479 321.057 82.9741 323.051 84.2866C325.045 85.5991 327.381 86.2553 330.057 86.2553C332.733 86.2553 335.068 85.5991 337.062 84.2866C339.057 82.9741 340.599 81.0479 341.69 78.5082C342.798 75.9684 343.352 72.8491 343.352 69.1502Z" fill="#131628"/>
<path d="M406.576 42.9684V95.332H397.013L374.232 62.3746H373.849V95.332H362.778V42.9684H372.494L395.096 75.9002H395.556V42.9684H406.576ZM424.749 95.332H412.885L430.962 42.9684H445.229L463.28 95.332H451.416L438.3 54.9343H437.891L424.749 95.332ZM424.007 74.7496H452.03V83.3917H424.007V74.7496ZM469.582 42.9684H483.236L497.656 78.1502H498.27L512.69 42.9684H526.344V95.332H515.605V61.2496H515.17L501.619 95.0763H494.307L480.756 61.1218H480.321V95.332H469.582V42.9684ZM535.465 95.332V42.9684H570.749V52.0962H546.536V64.5735H568.934V73.7013H546.536V86.2042H570.852V95.332H535.465Z" fill="#FF8057"/>
<defs>
<clipPath id="clip0_48059_219879">
<rect width="106.667" height="104.795" fill="white" transform="translate(10.666 10.666)"/>
</clipPath>
</defs>
</svg>
