<svg width="146" height="76" viewBox="0 0 146 76" fill="none" xmlns="http://www.w3.org/2000/svg">
<g clip-path="url(#clip0_47402_208295)">
<path d="M15.7658 32.152C15.689 32.1518 15.6124 32.1422 15.5379 32.1234L7.34473 30.0762V35.1639C7.34497 35.3359 7.39749 35.5037 7.49533 35.6452C7.59317 35.7867 7.73171 35.895 7.89256 35.9559C8.91712 36.3545 11.115 36.8303 15.7658 36.8303C20.4666 36.8303 22.6636 36.3461 23.6792 35.9414C23.8312 35.8768 23.9606 35.7685 24.051 35.6302C24.1413 35.492 24.1886 35.33 24.1868 35.1648V30.0762L15.9927 32.1234C15.9185 32.1423 15.8423 32.1519 15.7658 32.152Z" fill="#131628"/>
<path d="M2.6665 27.9418L15.7659 31.2167L28.8653 27.9418C28.87 27.9418 28.8724 27.9418 28.8724 27.9418L15.7659 24.667L2.6665 27.9418Z" fill="#131628"/>
<path d="M26.9937 29.3736V33.6861C26.8153 33.7891 26.6759 33.948 26.5971 34.1383C26.5183 34.3286 26.5045 34.5396 26.5578 34.7386C26.6111 34.9375 26.7285 35.1133 26.892 35.2387C27.0554 35.3641 27.2556 35.4321 27.4616 35.4321C27.6675 35.4321 27.8677 35.3641 28.0312 35.2387C28.1946 35.1133 28.312 34.9375 28.3653 34.7386C28.4187 34.5396 28.4048 34.3286 28.326 34.1383C28.2472 33.948 28.1078 33.7891 27.9294 33.6861V29.1396L26.9937 29.3736Z" fill="#131628"/>
<path fill-rule="evenodd" clip-rule="evenodd" d="M9.69645 40.5734H5.95703C6.02166 39.1603 6.39162 37.778 7.04148 36.5215C7.1937 36.6511 7.36632 36.7547 7.55235 36.8279C8.3568 37.1159 9.19027 37.3153 10.038 37.4225C9.83437 38.4612 9.72011 39.5153 9.69645 40.5734ZM19.5551 47.5907C18.7078 49.3727 17.5336 50.5849 16.2335 50.8188V47.5907H19.5551ZM25.5664 41.509H21.841C21.8149 43.2579 21.525 44.9929 20.9811 46.6552H23.8167C24.8757 45.1403 25.4825 43.3556 25.5664 41.509ZM24.0281 36.8073C24.1979 36.7391 24.3558 36.6443 24.4959 36.5266C25.1418 37.7824 25.5096 39.1627 25.5743 40.5734H21.8349C21.8118 39.5149 21.6985 38.4603 21.4962 37.4211C22.3606 37.313 23.2101 37.1071 24.0281 36.8073ZM20.5647 37.5419C19.1256 37.6887 17.68 37.7626 16.2335 37.7632V40.5735H20.8992C20.8754 39.5552 20.7635 38.5409 20.5647 37.5419ZM19.9537 46.6552H16.2335V41.509H20.8992C20.8669 43.2645 20.5476 45.0029 19.9537 46.6552ZM15.2978 41.509H10.6321C10.6643 43.2645 10.9837 45.0029 11.5776 46.6552H15.2978V41.509ZM10.9109 47.5907C11.3277 48.617 11.9304 49.5575 12.6887 50.365C11.0628 49.824 9.60636 48.8677 8.46368 47.5907H10.9109ZM5.96499 41.509C6.04887 43.3556 6.65567 45.1403 7.71469 46.6552H10.5502C10.0063 44.9929 9.71645 43.2579 9.69037 41.509H5.96499ZM15.2979 47.5907V50.8188C13.9977 50.5849 12.8235 49.3727 11.9762 47.5907H15.2979ZM15.2978 37.7632C13.8516 37.7624 12.4063 37.6885 10.9675 37.5419C10.7677 38.5408 10.6554 39.5551 10.6321 40.5735H15.2978V37.7632ZM20.6222 47.5907H23.0676C21.9255 48.8674 20.4697 49.8237 18.8445 50.365C19.6027 49.5575 20.2054 48.617 20.6222 47.5907Z" fill="#FF8057"/>
</g>
<path d="M39.1378 46.333V33.2421H41.9055V44.051H47.5178V46.333H39.1378ZM60.8707 39.7876C60.8707 41.2151 60.6001 42.4296 60.0589 43.431C59.522 44.4324 58.7891 45.1974 57.8601 45.7258C56.9354 46.2499 55.8956 46.512 54.7408 46.512C53.5774 46.512 52.5334 46.2478 51.6087 45.7194C50.6839 45.191 49.9531 44.426 49.4162 43.4246C48.8793 42.4232 48.6108 41.2108 48.6108 39.7876C48.6108 38.36 48.8793 37.1455 49.4162 36.1441C49.9531 35.1427 50.6839 34.3799 51.6087 33.8557C52.5334 33.3273 53.5774 33.0631 54.7408 33.0631C55.8956 33.0631 56.9354 33.3273 57.8601 33.8557C58.7891 34.3799 59.522 35.1427 60.0589 36.1441C60.6001 37.1455 60.8707 38.36 60.8707 39.7876ZM58.0646 39.7876C58.0646 38.8628 57.9261 38.083 57.6491 37.4481C57.3764 36.8131 56.9908 36.3316 56.4922 36.0035C55.9936 35.6753 55.4098 35.5113 54.7408 35.5113C54.0717 35.5113 53.4879 35.6753 52.9893 36.0035C52.4908 36.3316 52.103 36.8131 51.826 37.4481C51.5533 38.083 51.4169 38.8628 51.4169 39.7876C51.4169 40.7123 51.5533 41.4921 51.826 42.127C52.103 42.762 52.4908 43.2435 52.9893 43.5716C53.4879 43.8998 54.0717 44.0638 54.7408 44.0638C55.4098 44.0638 55.9936 43.8998 56.4922 43.5716C56.9908 43.2435 57.3764 42.762 57.6491 42.127C57.9261 41.4921 58.0646 40.7123 58.0646 39.7876ZM71.6014 37.4736C71.5119 37.1626 71.3862 36.8877 71.2243 36.6491C71.0623 36.4062 70.8642 36.2016 70.6298 36.0354C70.3997 35.865 70.1355 35.735 69.8372 35.6455C69.5431 35.556 69.2172 35.5113 68.8592 35.5113C68.1902 35.5113 67.6021 35.6775 67.095 36.0099C66.5922 36.3422 66.2001 36.8259 65.9189 37.4608C65.6376 38.0915 65.497 38.8628 65.497 39.7748C65.497 40.6867 65.6355 41.4623 65.9125 42.1015C66.1895 42.7407 66.5815 43.2286 67.0886 43.5653C67.5957 43.8976 68.1944 44.0638 68.8848 44.0638C69.5112 44.0638 70.046 43.953 70.4892 43.7314C70.9366 43.5056 71.2775 43.1881 71.5119 42.779C71.7505 42.3699 71.8699 41.8863 71.8699 41.328L72.4324 41.4111H69.0574V39.3273H74.5353V40.9765C74.5353 42.127 74.2924 43.1157 73.8066 43.9424C73.3208 44.7648 72.6518 45.3998 71.7995 45.8472C70.9473 46.2904 69.9714 46.512 68.872 46.512C67.6447 46.512 66.5666 46.2414 65.6376 45.7002C64.7086 45.1547 63.9842 44.3813 63.4643 43.3799C62.9487 42.3742 62.6909 41.181 62.6909 39.8003C62.6909 38.7393 62.8443 37.7932 63.1511 36.9623C63.4622 36.127 63.8968 35.4197 64.4551 34.8401C65.0133 34.2606 65.6632 33.8195 66.4047 33.517C67.1461 33.2144 67.9494 33.0631 68.8145 33.0631C69.5559 33.0631 70.2463 33.1718 70.8855 33.3891C71.5247 33.6022 72.0914 33.9047 72.5858 34.2968C73.0843 34.6888 73.4913 35.1555 73.8066 35.6966C74.122 36.2336 74.3244 36.8259 74.4139 37.4736H71.6014ZM88.6442 39.7876C88.6442 41.2151 88.3736 42.4296 87.8324 43.431C87.2955 44.4324 86.5625 45.1974 85.6335 45.7258C84.7088 46.2499 83.669 46.512 82.5142 46.512C81.3509 46.512 80.3068 46.2478 79.3821 45.7194C78.4574 45.191 77.7266 44.426 77.1896 43.4246C76.6527 42.4232 76.3842 41.2108 76.3842 39.7876C76.3842 38.36 76.6527 37.1455 77.1896 36.1441C77.7266 35.1427 78.4574 34.3799 79.3821 33.8557C80.3068 33.3273 81.3509 33.0631 82.5142 33.0631C83.669 33.0631 84.7088 33.3273 85.6335 33.8557C86.5625 34.3799 87.2955 35.1427 87.8324 36.1441C88.3736 37.1455 88.6442 38.36 88.6442 39.7876ZM85.8381 39.7876C85.8381 38.8628 85.6996 38.083 85.4226 37.4481C85.1499 36.8131 84.7642 36.3316 84.2656 36.0035C83.767 35.6753 83.1832 35.5113 82.5142 35.5113C81.8452 35.5113 81.2614 35.6753 80.7628 36.0035C80.2642 36.3316 79.8764 36.8131 79.5994 37.4481C79.3267 38.083 79.1903 38.8628 79.1903 39.7876C79.1903 40.7123 79.3267 41.4921 79.5994 42.127C79.8764 42.762 80.2642 43.2435 80.7628 43.5716C81.2614 43.8998 81.8452 44.0638 82.5142 44.0638C83.1832 44.0638 83.767 43.8998 84.2656 43.5716C84.7642 43.2435 85.1499 42.762 85.4226 42.127C85.6996 41.4921 85.8381 40.7123 85.8381 39.7876Z" fill="#131628"/>
<path d="M101.644 33.2421V46.333H99.2534L93.5581 38.0937H93.4622V46.333H90.6944V33.2421H93.1234L98.774 41.4751H98.889V33.2421H101.644ZM106.187 46.333H103.221L107.74 33.2421H111.307L115.82 46.333H112.854L109.575 36.2336H109.473L106.187 46.333ZM106.002 41.1874H113.007V43.3479H106.002V41.1874ZM117.396 33.2421H120.809L124.414 42.0376H124.567L128.173 33.2421H131.586V46.333H128.901V37.8124H128.793L125.405 46.2691H123.577L120.189 37.7805H120.08V46.333H117.396V33.2421ZM133.866 46.333V33.2421H142.687V35.5241H136.634V38.6434H142.233V40.9253H136.634V44.051H142.713V46.333H133.866Z" fill="#FF8057"/>
<defs>
<clipPath id="clip0_47402_208295">
<rect width="26.6667" height="26.1988" fill="white" transform="translate(2.6665 24.667)"/>
</clipPath>
</defs>
</svg>
