<svg width="100" height="50" viewBox="0 0 100 50" fill="none" xmlns="http://www.w3.org/2000/svg">
<path opacity="0.499035" fill-rule="evenodd" clip-rule="evenodd" d="M21.6981 42.3529H64.6226C64.8655 42.3529 65.1022 42.3574 65.3302 42.3659C65.5581 42.3574 65.7949 42.3529 66.0377 42.3529H82.3605C82.3619 42.3529 82.3632 42.3529 82.3646 42.3529C82.3659 42.3529 82.3673 42.3529 82.3686 42.3529H90.566C92.3896 42.3529 93.8679 42.6058 93.8679 42.9176C93.8679 43.2295 92.3896 43.4824 90.566 43.4824H87.7358C85.9123 43.4824 84.434 43.7352 84.434 44.0471C84.434 44.3589 85.9123 44.6118 87.7358 44.6118H96.6981C98.5217 44.6118 100 44.8646 100 45.1765C100 45.4883 98.5217 45.7412 96.6981 45.7412H86.3208C88.1443 45.7412 89.6226 45.994 89.6226 46.3059C89.6226 46.6178 88.1443 46.8706 86.3208 46.8706H56.1321C57.9557 46.8706 59.434 47.1234 59.434 47.4353C59.434 47.7472 57.9557 48 56.1321 48H29.2453C27.4217 48 25.9434 47.7472 25.9434 47.4353C25.9434 47.1234 27.4217 46.8706 29.2453 46.8706H10.3774C8.55378 46.8706 7.07547 46.6178 7.07547 46.3059C7.07547 45.994 8.55378 45.7412 10.3774 45.7412H22.1698C23.9934 45.7412 25.4717 45.4883 25.4717 45.1765C25.4717 44.8646 23.9934 44.6118 22.1698 44.6118H3.30189C1.4783 44.6118 0 44.3589 0 44.0471C0 43.7352 1.4783 43.4824 3.30189 43.4824H21.6981C19.8745 43.4824 18.3962 43.2295 18.3962 42.9176C18.3962 42.6058 19.8745 42.3529 21.6981 42.3529Z" fill="#D7D3D1"/>
<g clip-path="url(#clip0_47318_190246)">
<path fill-rule="evenodd" clip-rule="evenodd" d="M68.2586 38.4H69.6808C70.0739 38.4 70.392 38.7181 70.392 39.1111V41.9556C70.392 42.3486 70.0739 42.6667 69.6808 42.6667H28.4366C28.0435 42.6667 27.7255 42.3486 27.7255 41.9556V39.1111C27.7255 38.7181 28.0435 38.4 28.4366 38.4H29.8588V34.8445C29.8588 34.4514 30.1768 34.1334 30.5699 34.1334H31.9921V14.2223H31.281C30.888 14.2223 30.5699 13.9039 30.5699 13.5112V10.6668C30.5699 10.2741 30.888 9.95569 31.281 9.95569H34.6125L48.6511 0.128645C48.8955 -0.0428818 49.2219 -0.0428818 49.4663 0.128645L63.505 9.95569H66.8364C67.2295 9.95569 67.5475 10.2741 67.5475 10.6668V13.5112C67.5475 13.9039 67.2295 14.2223 66.8364 14.2223H66.1253V34.1334H67.5475C67.9406 34.1334 68.2586 34.4514 68.2586 34.8445V38.4ZM58.3031 38.4H66.8364V35.5556H65.4142H59.7253H58.3031V38.4ZM41.2365 34.8445V38.4H56.8809V34.8445C56.8809 34.4514 57.199 34.1334 57.592 34.1334H59.0142V14.2223H39.1032V34.1334H40.5254C40.9185 34.1334 41.2365 34.4514 41.2365 34.8445ZM37.681 34.1334V14.2223H36.2588V34.1334H37.681ZM60.4364 14.2223V34.1334H61.8587V14.2223H60.4364ZM63.2809 34.1334H64.7031V14.2223H63.2809V34.1334ZM61.0253 9.95569L49.0587 1.57933L37.0921 9.95569H61.0253ZM34.8365 11.3779H31.9921V12.8001H32.7032H38.3921H59.7253H65.4142H66.1253V11.3779H63.2809H34.8365ZM34.8365 14.2223H33.4143V34.1334H34.8365V14.2223ZM32.7032 35.5556H31.281V38.4H39.8143V35.5556H38.3921H32.7032ZM29.1477 41.2445H68.9697V39.8222H67.5475H57.592H40.5254H30.5699H29.1477V41.2445ZM56.6205 17.939C56.7851 18.0741 56.8809 18.2758 56.8809 18.489V28.4445C56.8809 28.7834 56.6413 29.0751 56.3094 29.1417L49.1983 30.5639C49.1518 30.573 49.1052 30.5778 49.0587 30.5778C49.0122 30.5778 48.9657 30.573 48.9191 30.5639L41.808 29.1417C41.4761 29.0751 41.2365 28.7834 41.2365 28.4445V18.489C41.2365 18.2758 41.3324 18.0741 41.4969 17.939C41.6615 17.8039 41.8775 17.7494 42.0872 17.7918L49.0587 19.1861L56.0302 17.7918C56.2406 17.7498 56.4566 17.8039 56.6205 17.939ZM48.3476 20.4942L42.6587 19.3563V27.8619L48.3476 28.9994V20.4942ZM49.7698 28.9994L55.4587 27.8619V19.3563L49.7698 20.4942V28.9994ZM51.1913 23.1112C51.2483 23.1112 51.3066 23.1042 51.3643 23.0897L54.2087 22.3789C54.5899 22.2838 54.8219 21.8977 54.7261 21.5164C54.6309 21.1359 54.2434 20.9018 53.8643 20.999L51.0198 21.7102C50.6386 21.8053 50.4066 22.1914 50.5025 22.5727C50.583 22.8959 50.8726 23.1112 51.1913 23.1112ZM51.3643 27.0008C51.3066 27.0153 51.2483 27.0223 51.1913 27.0223C50.8726 27.0223 50.583 26.807 50.5025 26.4834C50.4066 26.1028 50.6386 25.7167 51.0198 25.6216L53.8643 24.9105C54.2434 24.8147 54.6309 25.0459 54.7261 25.4278C54.8219 25.8084 54.5899 26.1945 54.2087 26.2896L51.3643 27.0008ZM47.0976 21.7102L44.2532 20.999C43.8726 20.9011 43.4858 21.1358 43.3914 21.5164C43.2956 21.8977 43.5275 22.2838 43.9088 22.3789L46.7532 23.0897C46.8108 23.1042 46.8692 23.1112 46.9261 23.1112C47.2449 23.1112 47.5344 22.8959 47.615 22.5726C47.7108 22.1914 47.4789 21.8053 47.0976 21.7102ZM44.2532 24.9105L47.0976 25.6216C47.4789 25.7167 47.7108 26.1028 47.615 26.4834C47.5344 26.807 47.2449 27.0223 46.9261 27.0223C46.8692 27.0223 46.8108 27.0153 46.7532 27.0008L43.9088 26.2897C43.5275 26.1945 43.2956 25.8084 43.3914 25.4278C43.4858 25.0459 43.8726 24.814 44.2532 24.9105Z" fill="#D7D3D1"/>
</g>
<defs>
<clipPath id="clip0_47318_190246">
<rect width="42.6667" height="42.6667" fill="white" transform="translate(27.7255)"/>
</clipPath>
</defs>
</svg>
