<svg width="78" height="40" viewBox="0 0 78 40" fill="none" xmlns="http://www.w3.org/2000/svg">
<path opacity="0.499035" fill-rule="evenodd" clip-rule="evenodd" d="M17.4492 33.0045H48.9492C49.1274 33.0045 49.3012 32.9852 49.4684 32.9487C49.6357 32.9852 49.8094 33.0045 49.9877 33.0045H67.9877C69.3259 33.0045 70.4108 31.9196 70.4108 30.5814C70.4108 29.2431 69.3259 28.1583 67.9877 28.1583H65.9108C64.5725 28.1583 63.4877 27.0734 63.4877 25.7352C63.4877 24.397 64.5725 23.3121 65.9108 23.3121H72.4877C73.8259 23.3121 74.9108 22.2273 74.9108 20.8891C74.9108 19.5508 73.8259 18.466 72.4877 18.466H64.8723C66.2105 18.466 67.2954 17.3811 67.2954 16.0429C67.2954 14.7047 66.2105 13.6198 64.8723 13.6198H42.7184C44.0567 13.6198 45.1415 12.535 45.1415 11.1968C45.1415 9.85853 44.0567 8.77368 42.7184 8.77368H22.9877C21.6494 8.77368 20.5646 9.85853 20.5646 11.1968C20.5646 12.535 21.6494 13.6198 22.9877 13.6198H9.14152C7.80329 13.6198 6.71844 14.7047 6.71844 16.0429C6.71844 17.3811 7.80329 18.466 9.14152 18.466H17.7954C19.1336 18.466 20.2184 19.5508 20.2184 20.8891C20.2184 22.2273 19.1336 23.3121 17.7954 23.3121H3.94921C2.61098 23.3121 1.52613 24.397 1.52613 25.7352C1.52613 27.0734 2.61098 28.1583 3.94921 28.1583H17.4492C16.111 28.1583 15.0261 29.2431 15.0261 30.5814C15.0261 31.9196 16.111 33.0045 17.4492 33.0045ZM73.8723 33.0045C75.2105 33.0045 76.2954 31.9196 76.2954 30.5814C76.2954 29.2432 75.2105 28.1583 73.8723 28.1583C72.5341 28.1583 71.4492 29.2432 71.4492 30.5814C71.4492 31.9196 72.5341 33.0045 73.8723 33.0045Z" fill="#EAE6E5"/>
<path fill-rule="evenodd" clip-rule="evenodd" d="M25.5071 34.7777L24.0982 34.9758C23.341 35.0822 22.6408 34.5546 22.5344 33.7973L18.6804 6.37451C18.5739 5.61725 19.1015 4.91709 19.8588 4.81066L46.9388 1.00481C47.6961 0.898389 48.3962 1.426 48.5027 2.18326C48.5027 2.18326 48.7491 3.93665 48.8338 4.53979" fill="white"/>
<path fill-rule="evenodd" clip-rule="evenodd" d="M26.3817 33.251L25.1024 33.4329C24.4148 33.5306 23.7799 33.0525 23.6843 32.365L20.2245 7.46794C20.1289 6.78043 20.6089 6.14386 21.2966 6.04613L45.8865 2.5511C46.5741 2.45336 47.209 2.93147 47.3045 3.61898L47.6018 5.75847C47.6179 5.87424 48.6801 13.5587 50.7884 28.8117C50.8943 29.5777 50.3661 30.2854 49.6088 30.3924C49.6007 30.3936 49.5925 30.3946 49.5844 30.3956L26.3817 33.251Z" fill="#EAE6E5"/>
<path d="M25.5071 34.7777L24.0982 34.9758C23.341 35.0822 22.6408 34.5546 22.5344 33.7973L18.6804 6.37451C18.5739 5.61725 19.1015 4.91709 19.8588 4.81066L46.9388 1.00482C47.6961 0.898389 48.3962 1.42599 48.5027 2.18325C48.5027 2.18325 48.7491 3.93665 48.8338 4.53979" stroke="#E1DDDB" stroke-width="0.865385" stroke-linecap="round"/>
<path d="M49.1223 6.13583L49.2954 7.21597" stroke="#D7D3D1" stroke-width="0.865385" stroke-linecap="round"/>
<path d="M30.1952 7.55815C30.2501 7.0353 30.7185 6.65599 31.2414 6.71095L58.4377 9.5694C58.9606 9.62435 59.3399 10.0928 59.285 10.6156L56.3903 38.1562C56.3354 38.6791 55.867 39.0584 55.3441 39.0034L28.1478 36.145C27.6249 36.09 27.2456 35.6216 27.3006 35.0988L30.1952 7.55815Z" fill="white" stroke="#E1DDDB" stroke-width="0.865385"/>
<path fill-rule="evenodd" clip-rule="evenodd" d="M32.5737 10.5927C32.6337 10.0223 33.1447 9.6085 33.715 9.66845L55.4033 11.948C55.9737 12.0079 56.3874 12.5189 56.3275 13.0893L54.4098 31.335C54.3499 31.9053 53.8389 32.3191 53.2685 32.2592L31.5802 29.9797C31.0099 29.9197 30.5961 29.4087 30.656 28.8383L32.5737 10.5927Z" fill="white"/>
<path fill-rule="evenodd" clip-rule="evenodd" d="M33.6287 24.6544L37.0201 22.367C37.5856 21.9856 38.3446 22.0729 38.8089 22.5726L41.292 25.246C41.416 25.3794 41.6221 25.394 41.7636 25.2794L47.0735 20.9768C47.7131 20.4585 48.661 20.6095 49.108 21.3008L52.5629 26.6445L53.059 27.4725L52.8214 30.2849C52.8051 30.4789 52.6319 30.6213 52.4383 30.5998L32.7204 28.409C32.533 28.3882 32.3967 28.2211 32.414 28.0333L32.6753 25.1953L33.6287 24.6544Z" fill="#EAE6E5"/>
<path d="M33.004 10.6379C33.039 10.3052 33.3371 10.0638 33.6698 10.0988L55.358 12.3783C55.6908 12.4133 55.9321 12.7113 55.8972 13.0441L53.9795 31.2897C53.9445 31.6224 53.6464 31.8638 53.3137 31.8289L31.6255 29.5493C31.2928 29.5144 31.0514 29.2163 31.0863 28.8836L33.004 10.6379Z" stroke="#E1DDDB" stroke-width="0.865385"/>
<circle cx="37.8834" cy="16.3716" r="2.07692" transform="rotate(6 37.8834 16.3716)" fill="#EAE6E5" stroke="#E1DDDB" stroke-width="0.865385"/>
<path d="M32.9323 25.19C34.2949 24.2491 37.0201 22.3671 37.0201 22.3671C37.5856 21.9857 38.3446 22.073 38.8089 22.5727L41.292 25.2461C41.416 25.3795 41.6221 25.3941 41.7636 25.2794L47.0735 20.9769C47.6677 20.4954 48.5396 20.5868 49.021 21.181C49.0521 21.2194 49.0811 21.2594 49.108 21.3009C49.108 21.3009 52.2124 26.2269 52.9378 27.378" stroke="#E1DDDB" stroke-width="0.865385" stroke-linecap="round"/>
</svg>
