<svg width="248" height="216" viewBox="0 0 248 216" fill="none" xmlns="http://www.w3.org/2000/svg">
<path d="M0 6C0 2.68629 2.68629 0 6 0H248V216H5.99999C2.68629 216 0 213.314 0 210V6Z" fill="white"/>
<rect width="248" height="216" fill="#F2F0EF"/>
<path fill-rule="evenodd" clip-rule="evenodd" d="M91 81C91 79.3431 92.3431 78 94 78H112C115.978 78 119.794 79.5804 122.607 82.3934C125.42 85.2064 127 89.0218 127 93V135C127 136.657 125.657 138 124 138C122.343 138 121 136.657 121 135C121 133.409 120.368 131.883 119.243 130.757C118.117 129.632 116.591 129 115 129H94C92.3431 129 91 127.657 91 126V81ZM121 124.608V93C121 90.6131 120.052 88.3239 118.364 86.636C116.676 84.9482 114.387 84 112 84H97V123H115C117.125 123 119.191 123.563 121 124.608Z" fill="#D7D3D1"/>
<path fill-rule="evenodd" clip-rule="evenodd" d="M125.393 82.3934C128.206 79.5804 132.022 78 136 78H154C155.657 78 157 79.3431 157 81V126C157 127.657 155.657 129 154 129H133C131.409 129 129.883 129.632 128.757 130.757C127.632 131.883 127 133.409 127 135C127 136.657 125.657 138 124 138C122.343 138 121 136.657 121 135V93C121 89.0218 122.58 85.2064 125.393 82.3934ZM127 124.608C128.809 123.563 130.875 123 133 123H151V84H136C133.613 84 131.324 84.9482 129.636 86.636C127.948 88.3239 127 90.6131 127 93V124.608Z" fill="#D7D3D1"/>
</svg>
